<?xml version="1.0" encoding="UTF-8"?>
<svg id="Layer_2" data-name="Layer 2" xmlns="http://www.w3.org/2000/svg" viewBox="0 0 394.52 225.77">
  <defs>
    <style>
      .cls-1 {
        fill: #5488e8;
        stroke-width: 0px;
      }
    </style>
  </defs>
  <g id="Layer_1-2" data-name="Layer 1">
    <g>
      <g>
        <path class="cls-1" d="M26.95,186.28c-2.63-1.18-5.76-1.77-9.39-1.77H0v40.56h9.39v-11.18h8.17c3.63,0,6.76-.59,9.39-1.77,2.63-1.18,4.65-2.87,6.08-5.07,1.43-2.2,2.14-4.81,2.14-7.82s-.72-5.68-2.14-7.88c-1.43-2.2-3.46-3.89-6.08-5.07ZM23.53,204.39c-1.43,1.24-3.59,1.85-6.49,1.85h-7.65v-14.08h7.65c2.9,0,5.06.62,6.49,1.85,1.43,1.24,2.14,2.98,2.14,5.22s-.72,3.92-2.14,5.16Z"/>
        <path class="cls-1" d="M77.91,189.79c-1.99-1.89-4.33-3.36-7.01-4.4-2.69-1.04-5.63-1.56-8.84-1.56s-6.1.52-8.81,1.56c-2.7,1.04-5.06,2.51-7.07,4.4-2.01,1.89-3.56,4.11-4.67,6.66-1.1,2.55-1.65,5.33-1.65,8.35s.55,5.79,1.65,8.34c1.1,2.55,2.65,4.77,4.64,6.66,1.99,1.89,4.35,3.36,7.07,4.4,2.72,1.04,5.69,1.56,8.9,1.56s6.09-.52,8.78-1.56c2.69-1.04,5.02-2.5,7.01-4.38,1.99-1.87,3.54-4.09,4.67-6.66,1.12-2.57,1.68-5.36,1.68-8.37s-.56-5.84-1.68-8.37c-1.12-2.53-2.68-4.74-4.67-6.63ZM73.8,210.07c-.64,1.58-1.54,2.96-2.7,4.11-1.16,1.16-2.5,2.05-4.03,2.67-1.53.62-3.2.93-5.01.93s-3.5-.31-5.04-.93c-1.55-.62-2.89-1.51-4.03-2.67-1.14-1.16-2.03-2.54-2.67-4.14-.64-1.6-.96-3.35-.96-5.24s.32-3.69.96-5.27c.64-1.58,1.54-2.96,2.7-4.11,1.16-1.16,2.5-2.05,4.03-2.67,1.53-.62,3.2-.93,5.01-.93s3.5.31,5.04.93c1.54.62,2.89,1.51,4.03,2.67,1.14,1.16,2.03,2.53,2.67,4.11.64,1.58.96,3.34.96,5.27s-.32,3.69-.96,5.27Z"/>
        <polygon class="cls-1" points="132.87 213.24 123.61 184.51 114.91 184.51 105.35 213.03 96.2 184.51 86.46 184.51 99.73 225.08 109.82 225.08 119.01 197.59 127.95 225.08 138.04 225.08 151.31 184.51 142.33 184.51 132.87 213.24"/>
        <polygon class="cls-1" points="165.85 208.16 184.69 208.16 184.69 200.85 165.85 200.85 165.85 192.05 187.18 192.05 187.18 184.51 156.52 184.51 156.52 225.08 187.93 225.08 187.93 217.54 165.85 217.54 165.85 208.16"/>
        <path class="cls-1" d="M222.35,212.04c2.63-1.16,4.65-2.83,6.08-5.01,1.43-2.18,2.14-4.78,2.14-7.79s-.72-5.68-2.14-7.88c-1.43-2.2-3.46-3.89-6.08-5.07-2.63-1.18-5.76-1.77-9.39-1.77h-17.56v40.56h9.39v-11.3h8.17c.15,0,.28-.02.43-.02l7.8,11.32h10.14l-9.06-13.01s.06-.02.08-.03ZM218.93,194.02c1.43,1.24,2.14,2.98,2.14,5.22s-.72,3.93-2.14,5.19c-1.43,1.26-3.59,1.88-6.49,1.88h-7.65v-14.14h7.65c2.9,0,5.06.62,6.49,1.85Z"/>
        <path class="cls-1" d="M248.6,195.41c1.16-1.16,2.53-2.05,4.11-2.67,1.58-.62,3.32-.93,5.22-.93,2.01,0,3.86.4,5.56,1.19,1.7.79,3.25,1.98,4.64,3.56l6.03-5.56c-1.93-2.36-4.32-4.14-7.16-5.36-2.84-1.22-6.02-1.83-9.53-1.83-3.17,0-6.08.51-8.75,1.54-2.67,1.02-4.99,2.48-6.98,4.37-1.99,1.89-3.53,4.11-4.64,6.66-1.1,2.55-1.65,5.35-1.65,8.4s.55,5.85,1.65,8.4c1.1,2.55,2.64,4.77,4.61,6.66,1.97,1.89,4.3,3.35,6.98,4.38,2.68,1.02,5.59,1.54,8.72,1.54,3.55,0,6.75-.62,9.59-1.85,2.84-1.24,5.22-3.03,7.16-5.39l-6.03-5.56c-1.39,1.62-2.94,2.83-4.64,3.62-1.7.79-3.55,1.19-5.56,1.19-1.89,0-3.63-.31-5.22-.93-1.58-.62-2.96-1.51-4.11-2.67-1.16-1.16-2.06-2.53-2.7-4.11-.64-1.58-.96-3.34-.96-5.27s.32-3.69.96-5.27c.64-1.58,1.54-2.96,2.7-4.11Z"/>
        <path class="cls-1" d="M292.41,184.51l-18.08,40.56h9.62l3.61-8.69h18.8l3.6,8.69h9.85l-18.14-40.56h-9.27ZM290.53,209.26l6.46-15.52,6.43,15.52h-12.89Z"/>
        <polygon class="cls-1" points="333.44 184.51 324.05 184.51 324.05 225.08 353.78 225.08 353.78 217.43 333.44 217.43 333.44 184.51"/>
        <path class="cls-1" d="M383.86,216.59c-1.7.79-3.55,1.19-5.56,1.19-1.89,0-3.63-.31-5.22-.93-1.58-.62-2.96-1.51-4.11-2.67-1.16-1.16-2.06-2.53-2.7-4.11-.64-1.58-.96-3.34-.96-5.27s.32-3.69.96-5.27c.64-1.58,1.54-2.96,2.7-4.11,1.16-1.16,2.53-2.05,4.11-2.67,1.58-.62,3.32-.93,5.22-.93,2.01,0,3.86.4,5.56,1.19,1.7.79,3.25,1.98,4.64,3.56l6.03-5.56c-1.93-2.36-4.32-4.14-7.16-5.36-2.84-1.22-6.02-1.83-9.53-1.83-3.17,0-6.08.51-8.75,1.54-2.67,1.02-4.99,2.48-6.98,4.37-1.99,1.89-3.53,4.11-4.64,6.66-1.1,2.55-1.65,5.35-1.65,8.4s.55,5.85,1.65,8.4c1.1,2.55,2.64,4.77,4.61,6.66,1.97,1.89,4.3,3.35,6.98,4.38,2.68,1.02,5.59,1.54,8.72,1.54,3.55,0,6.75-.62,9.59-1.85,2.84-1.24,5.22-3.03,7.16-5.39l-6.03-5.56c-1.39,1.62-2.94,2.83-4.64,3.62Z"/>
      </g>
      <path class="cls-1" d="M185.11,66.68l-20.24,17.14V25.67c0-1.53,1.24-2.78,2.78-2.78h17.47v43.79ZM211.55,44.31l-20.24,17.14V22.89h20.24v21.42ZM217.74,39.07v-16.17h19.12l-19.12,16.17ZM159.92,148.21s.01-.03.03-.04l17.99-31.43,1.18-2.04,13.31-23.28h-26.68c-.97,0-1.42-1.21-.67-1.84l20.04-16.96,6.2-5.25,20.24-17.14,6.2-5.25,20.24-17.14-20.24,36.6-6.2,11.21h17.49c1.92,0,3.17,2.02,2.31,3.73l-23.58,47.13,5.48-.47c15.25-1.31,28.94-8.04,39.16-18.26,11.34-11.33,18.4-26.97,18.5-44.22.23-34.96-29.31-63.57-64.28-63.57h-37.87c-13.34,0-24.15,10.81-24.15,24.15v119.93c0,8.4,11.11,11.37,15.31,4.14h0Z"/>
    </g>
  </g>
</svg>
