<?xml version="1.0" encoding="UTF-8"?>
<svg id="Layer_1" data-name="Layer 1" xmlns="http://www.w3.org/2000/svg" version="1.1" viewBox="0 0 1000 1000">
  <defs>
    <style>
      .cls-1 {
        fill: #000;
        font-family: Montserrat-Bold, Montserrat;
        font-size: 40.1px;
        font-weight: 700;
      }

      .cls-2 {
        fill: #5488e8;
      }

      .cls-2, .cls-3 {
        stroke-width: 0px;
      }

      .cls-3 {
        fill: #fff;
      }
    </style>
  </defs>
  <rect class="cls-2" x="1020" y="1031.1" width="1000" height="1000"/>
  <text class="cls-1" transform="translate(464.2 -68.8)"><tspan x="0" y="0">POWERCALC</tspan></text>
  <g>
    <path class="cls-2" d="M217.1,1511.2c-4.1,5.4-7.6,10.7-10.5,15.8-1.2,2.1-2.3,4.2-3.3,6.2-7.9-10.5-12.6-23.6-12.4-37.8.5-33.6,28.3-60.7,61.9-60.4,14,.1,26.9,5,37.1,13-2.8.3-5.4.7-7.9,1-12,1.8-21.2,4-28.2,6.2-16.4,5.2-20.4,10.5-20.4,10.5l15.4,13.8c-13.4,10.6-23.8,21.2-31.7,31.5ZM372.6,1453.8c-31.2-3.4-55.3-.3-72.7,4.3-.3,0-.5.2-.8.2-1,.3-1.9.5-2.9.8-8.4,2.4-15.1,5.2-20.1,7.5-7,3.3-10.7,5.8-11.3,5.8s3.2,3.7,8.1,7.9c2.3,2,4.8,4.1,7.1,6,4.1,3.4,7.5,6.2,7.5,6.2-5.4,1.4-10.4,3.2-15.3,5.3-19.9,8.5-35.5,21.8-46.3,33.3-4.7,5.1-8.6,9.8-11.4,13.6-4.2,5.5-6.3,9.2-6.3,9.2l21.7-.4c1.1.4,2.3.9,3.5,1.2,5.9,1.9,12.2,3,18.8,3,0,0,10.2,0,22.5-5h0c0,0,.1,0,.2,0,1.5-.6,3-1.3,4.6-2.1,53.1-25.9,28.9-81.2,28.9-81.2,16.1-8.7,64.3-15.4,64.3-15.4ZM331,1496.3c0,43.4-35.3,78.7-78.7,78.7s-78.7-35.3-78.7-78.7,35.3-78.7,78.7-78.7,45.1,10.6,59.5,27.3c3.2-.3,6.8-.6,10.8-.9-16-21.5-41.6-35.5-70.4-35.5-48.3,0-87.7,39.3-87.7,87.7s39.3,87.7,87.7,87.7,87.7-39.3,87.7-87.7-.7-12.5-2-18.5c-3.3.9-6.2,1.8-8.6,2.6,1.1,5.1,1.6,10.5,1.6,15.9Z"/>
    <path class="cls-2" d="M421.9,1481.5c0-.5.1-1,.1-1.5,0-1.3-.3-2.6-.8-3.8-.5-1.2-1.3-2.3-2.2-3.2-.6-.5-1.1-.9-1.7-1.2-.6-.3-1.2-.6-2-.8-.7-.2-1.6-.3-2.6-.4-.9,0-2.1-.1-3.3-.1h-40.3v.4c.3.5.4,1,.5,1.4,0,.4,0,.8,0,1.2s0,1.2-.2,2.1c-.1.9-.2,1.5-.3,1.9l-9.2,35.5c-.3,1.1-.6,2.1-.8,2.9-.3.8-.5,1.5-.8,2.1-.2.6-.5,1.2-.9,1.8-.3.6-.7,1.2-1.2,1.9l-.3.4h23.7l-.2-.4c-.2-.5-.4-1-.4-1.3,0-.3,0-.8,0-1.3s0-1.2.2-2c0-.8.2-1.4.4-1.9l2.9-11.1h20.5c1.7,0,3.1,0,4.2,0,1.1,0,2.1-.2,2.9-.3.8-.2,1.5-.4,2.1-.7.6-.3,1.2-.7,1.9-1.2.7-.5,1.3-1,1.8-1.5.5-.5.9-1.2,1.3-1.8.4-.7.8-1.5,1.1-2.4.3-.9.7-2,1-3.2l2.3-9c.3-.9.4-1.6.5-2.1ZM401.4,1483.2l-1.8,7.3c-.2,1-.5,1.8-.8,2.4-.3.6-.6,1-1,1.3-.4.3-1,.5-1.6.6-.7,0-1.5.1-2.6.1h-8.8l4-15.5h9.3c1.4,0,2.4.2,2.9.5.5.3.7.9.7,1.8s0,1-.2,1.5Z"/>
    <path class="cls-2" d="M478.6,1473.1c-.6-.5-1.2-.9-1.8-1.2-.6-.3-1.3-.6-2.1-.8-.8-.2-1.7-.4-2.7-.4-1,0-2.2-.1-3.5-.1h-24.7c-2.5,0-4.8.2-6.6.6-1.9.4-3.5,1-4.8,2-1.3.9-2.4,2.1-3.3,3.6-.9,1.4-1.6,3.2-2.1,5.3l-6.5,25c-.3.8-.4,1.5-.5,1.9-.1.5-.2.8-.3,1.1,0,.3-.1.6-.1.9v1c0,3.1,1.1,5.6,3.3,7.7.5.5,1.1,1,1.7,1.3.6.3,1.2.6,2,.7.7.2,1.6.3,2.6.4,1,0,2.3,0,3.8,0h26c2.4,0,4.6-.2,6.3-.6,1.8-.4,3.3-1,4.6-1.9,1.3-.9,2.3-2.1,3.1-3.5.8-1.4,1.5-3.2,2-5.3l6.5-25.1c.5-1.8.7-3.4.7-4.5s-.3-3-.9-4.4c-.6-1.3-1.5-2.6-2.7-3.6ZM462.2,1482.8l-.4,1.3-6.4,24.7c-.3,1.1-.5,1.9-.7,2.4-.2.5-.4,1-.7,1.2-.3.3-.6.4-1,.5-.5,0-1.1,0-1.9,0h-7.4c-.9,0-1.5,0-1.8,0-.4,0-.7-.1-1-.2-.4-.2-.7-.4-.9-.7-.2-.3-.3-.6-.3-.9s0-.4,0-.5c0-.2.2-.8.5-1.9l6.3-24.5c.2-1,.5-1.8.8-2.4.3-.6.6-1.1,1-1.4.4-.3.8-.5,1.4-.7.6-.1,1.3-.2,2.2-.2h7.2c3.5,0,3.5,1.4,3.5,1.9s0,.9-.2,1.4Z"/>
    <path class="cls-2" d="M566.8,1474.6c.8-1.1,1.7-2.3,2.9-3.6l.4-.4h-13.4v1.8c0,.7-.1,1.5-.3,2.3-.2.9-.5,1.6-.9,2.3l-14.1,25.7.6-32.1h-19.4l-17.8,32.5.6-24.5c0-3.1.8-5.7,1.9-7.7l.2-.4h-23.3l.2.4c.9,1.9,1.4,4.3,1.4,7.3v1.8l-.9,41.9h19.5l17.7-32.1-.7,32.1h19.6l23.7-43.8c.7-1.3,1.4-2.5,2.2-3.6Z"/>
    <path class="cls-2" d="M779.9,1511.3c-2.3,1.1-4.9,1.7-7.7,1.7h-13c-1.2,0-1.9,0-2.2,0-.3,0-.6,0-1-.2-1.1-.3-1.6-.9-1.6-1.9s0-.5,0-.8c0-.3.2-.8.4-1.4l6.6-25.6c.2-.8.4-1.4.7-1.9.2-.5.5-.8.9-1.1.4-.3.9-.4,1.6-.5.7,0,1.6-.1,2.8-.1h13.4c.8,0,1.4,0,2,0,.5,0,1,0,1.5.2.5.1,1,.3,1.5.5.5.2,1.1.5,1.8.8h.3c0,.1,1.1-10.5,1.1-10.5h-29c-2.7-.1-5.1,0-7.1.3-2,.3-3.8.9-5.2,1.8-1.5.9-2.7,2-3.6,3.4-.9,1.4-1.7,3.1-2.2,5.1l-6.9,26.8c-.4,1.3-.6,2.3-.7,2.9-.1.6-.2,1.2-.2,1.8,0,1.7.5,3.3,1.4,4.8.9,1.5,2.1,2.6,3.7,3.3.5.3,1,.5,1.4.6.4.1,1,.2,1.7.3.7,0,1.6.1,2.7.2,1.1,0,2.7,0,4.7.1h26.3l4.4-11-.6.3Z"/>
    <path class="cls-2" d="M895.5,1512.4c-.7.2-1.6.3-2.6.4-1,0-2.3.1-3.8.2-1.5,0-3.3,0-5.6,0h-12.3l8.6-33.5c.3-1.1.6-2.1.8-2.8.3-.8.5-1.5.8-2.1.2-.6.5-1.2.9-1.7.4-.6.8-1.2,1.2-1.9l.3-.4h-23.7v.4c.3.5.4,1,.5,1.4,0,.4,0,.8,0,1.2s0,1.2-.1,2.1c-.1.9-.2,1.5-.3,1.9l-9.2,35.5c-.3,1.1-.6,2.1-.8,2.9-.3.8-.5,1.5-.8,2.1-.2.6-.6,1.2-.9,1.8-.3.6-.7,1.2-1.2,1.9l-.2.3-.3-.3c-.5-.5-.8-.9-1.2-1.3-.3-.4-.6-.9-.8-1.5-.2-.6-.5-1.3-.8-2.1-.2-.8-.5-1.9-.8-3.2l-8.8-42.6v-.2h-28.7l1.4.5c1.1.4,1.9.8,2.3,1.1.4.3,1,.8,1.6,1.6l-27.3,40.6c-1.3,1.8-2.4,3.2-3.3,4.2-.9,1-1.9,2-3,2.9l-.5.5h14.7v-.3c-.2-.4-.3-.5-.3-.6v-.6c0-1,.5-2.3,1.6-3.8l5.6-8.4h23.5l1,5.1c.4,2,.6,3.5.6,4.5s0,1.1-.3,1.7c-.2.5-.5,1.3-.9,2.1l-.2.4h72.1l4.1-10.3-.5.2c-.9.3-1.7.5-2.4.6ZM804.1,1499.9l12.4-18.6,3.8,18.6h-16.2Z"/>
    <path class="cls-2" d="M925.6,1470.5c-2.7-.1-5.1,0-7.1.3-2,.3-3.8.9-5.2,1.8-1.5.9-2.7,2-3.6,3.4-.9,1.4-1.7,3.1-2.2,5.1l-6.9,26.8c-.4,1.3-.6,2.3-.7,2.9-.1.6-.2,1.2-.2,1.8,0,1.7.5,3.3,1.4,4.8.9,1.5,2.1,2.6,3.7,3.3.5.3,1,.5,1.4.6.4.1,1,.2,1.7.3.7,0,1.6.1,2.7.2,1.1,0,2.7,0,4.7.1h26.3l4.4-11-.6.3c-2.3,1.1-4.9,1.7-7.7,1.7h-13c-1.2,0-1.9,0-2.2,0-.3,0-.6,0-1-.2-1.1-.3-1.6-.9-1.6-1.9s0-.5,0-.8c0-.3.2-.8.4-1.4l6.6-25.6c.2-.8.4-1.4.7-1.9.2-.5.5-.8.9-1.1.4-.3.9-.4,1.6-.5.7,0,1.6-.1,2.8-.1h13.4c.8,0,1.4,0,2,0,.5,0,1,0,1.5.2.5.1,1,.3,1.5.5.5.2,1.1.5,1.8.8h.3c0,.1,1.1-10.5,1.1-10.5h-29Z"/>
    <path class="cls-2" d="M606.6,1511.9c-1,.4-1.9.7-2.7.9-.8.2-1.7.3-2.6.3h-19.6l3.3-12.7h11.3l10-9c-.1,0-.3,0-.4,0h-18.7l3.1-11.8h18.6c1.4,0,2.6,0,3.3.2.8.1,1.6.5,2.6,1l.3.2,1.3-10.4h-45.8v.4c.3.5.4,1,.5,1.4,0,.4,0,.8,0,1.2s0,1.2-.2,2.1c-.1.9-.2,1.5-.3,1.9l-9.2,35.5c-.3,1.1-.6,2.1-.8,2.9-.3.8-.5,1.5-.8,2.1-.2.6-.6,1.2-.9,1.8-.3.6-.7,1.2-1.2,1.9l-.3.4h45.5l4.1-10.3-.6.2Z"/>
    <path class="cls-2" d="M667.4,1494.9c.2-.7.5-1.6.8-2.8l2.2-8.6c.1-.3.2-.9.3-1.7.1-.8.2-1.4.2-1.7,0-1.4-.4-2.8-1.2-4.2-.8-1.4-1.8-2.6-3.1-3.5-.6-.4-1.1-.7-1.6-.9-.5-.3-1.1-.5-1.8-.6-.7-.1-1.5-.2-2.4-.2-1,0-2.2,0-3.6,0h-38.4v.4c.3.5.4,1,.5,1.4,0,.4,0,.8,0,1.2s0,1.2-.2,2.1c-.1.9-.2,1.5-.3,1.9l-7.6,29.4-1.6,6.2c-.3,1.1-.6,2.1-.8,2.9-.3.8-.5,1.5-.8,2.1-.2.6-.5,1.2-.9,1.8-.3.5-.7,1.1-1.2,1.8l-.3.4h23.7l-.2-.4c-.2-.5-.4-1-.4-1.3,0-.3,0-.8,0-1.3s0-1.2.2-2c0-.8.2-1.5.4-2l3.8-14.9h4.6l4.2,21.8h22.3l-.5-.5c-.5-.5-.9-.9-1.2-1.3-.3-.4-.6-.8-.8-1.2-.2-.4-.4-.8-.5-1.4-.1-.5-.3-1.1-.5-1.8l-3.1-15.7c.2,0,.3,0,.5,0h.7c1.2,0,2.5-.2,3.7-.5,1.2-.4,2.2-.9,2.9-1.5.3-.3.6-.5.8-.8.2-.2.4-.6.6-1,.2-.4.4-.9.6-1.6ZM650.4,1482.9l-1.3,5.1c-.1.7-.3,1.2-.5,1.6-.2.4-.4.6-.7.9-.3.2-.7.3-1.2.4-.5,0-1.2.1-2,.1h-9.1l2.9-11.5h9.6c1,0,1.7.1,2.2.4.4.2.6.6.6,1.3s0,1.1-.3,1.7Z"/>
    <polygon class="cls-2" points="705.8 1494.2 722.3 1465.1 680.8 1502.4 699.5 1505.7 682.4 1534.7 725.1 1497.5 705.8 1494.2"/>
  </g>
  <g>
    <path class="cls-3" d="M1177.4,1546c-4.1,5.4-7.6,10.7-10.5,15.8-1.2,2.1-2.3,4.2-3.3,6.2-7.9-10.5-12.6-23.6-12.4-37.8.5-33.6,28.3-60.7,61.9-60.4,14,.1,26.9,5,37.1,13-2.8.3-5.4.7-7.9,1-12,1.8-21.2,4-28.2,6.2-16.4,5.2-20.4,10.5-20.4,10.5l15.4,13.8c-13.4,10.6-23.8,21.2-31.7,31.5ZM1333,1488.6c-31.2-3.4-55.3-.3-72.7,4.3-.3,0-.5.2-.8.2-1,.3-1.9.5-2.9.8-8.4,2.4-15.1,5.2-20.1,7.5-7,3.3-10.7,5.8-11.3,5.8s3.2,3.7,8.1,7.9c2.3,2,4.8,4.1,7.1,6,4.1,3.4,7.5,6.2,7.5,6.2-5.4,1.4-10.4,3.2-15.3,5.3-19.9,8.5-35.5,21.8-46.3,33.3-4.7,5.1-8.6,9.8-11.4,13.6-4.2,5.5-6.3,9.2-6.3,9.2l21.7-.4c1.1.4,2.3.9,3.5,1.2,5.9,1.9,12.2,3,18.8,3,0,0,10.2,0,22.5-5h0c0,0,.1,0,.2,0,1.5-.6,3-1.3,4.6-2.1,53.1-25.9,28.9-81.2,28.9-81.2,16.1-8.7,64.3-15.4,64.3-15.4ZM1291.4,1531.1c0,43.4-35.3,78.7-78.7,78.7s-78.7-35.3-78.7-78.7,35.3-78.7,78.7-78.7,45.1,10.6,59.5,27.3c3.2-.3,6.8-.6,10.8-.9-16-21.5-41.6-35.5-70.4-35.5-48.3,0-87.7,39.3-87.7,87.7s39.3,87.7,87.7,87.7,87.7-39.3,87.7-87.7-.7-12.5-2-18.5c-3.3.9-6.2,1.8-8.6,2.6,1.1,5.1,1.6,10.5,1.6,15.9Z"/>
    <path class="cls-3" d="M1382.3,1516.3c0-.5.1-1,.1-1.5,0-1.3-.3-2.6-.8-3.8-.5-1.2-1.3-2.3-2.2-3.2-.6-.5-1.1-.9-1.7-1.2-.6-.3-1.2-.6-2-.8-.7-.2-1.6-.3-2.6-.4-.9,0-2.1-.1-3.3-.1h-40.3v.4c.3.5.4,1,.5,1.4,0,.4,0,.8,0,1.2s0,1.2-.2,2.1c-.1.9-.2,1.5-.3,1.9l-9.2,35.5c-.3,1.1-.6,2.1-.8,2.9-.3.8-.5,1.5-.8,2.1-.2.6-.5,1.2-.9,1.8-.3.6-.7,1.2-1.2,1.9l-.3.4h23.7l-.2-.4c-.2-.5-.4-1-.4-1.3,0-.3,0-.8,0-1.3s0-1.2.2-2c0-.8.2-1.4.4-1.9l2.9-11.1h20.5c1.7,0,3.1,0,4.2,0,1.1,0,2.1-.2,2.9-.3.8-.2,1.5-.4,2.1-.7.6-.3,1.2-.7,1.9-1.2.7-.5,1.3-1,1.8-1.5.5-.5.9-1.2,1.3-1.8.4-.7.8-1.5,1.1-2.4.3-.9.7-2,1-3.2l2.3-9c.3-.9.4-1.6.5-2.1ZM1361.8,1518l-1.8,7.3c-.2,1-.5,1.8-.8,2.4-.3.6-.6,1-1,1.3-.4.3-1,.5-1.6.6-.7,0-1.5.1-2.6.1h-8.8l4-15.5h9.3c1.4,0,2.4.2,2.9.5.5.3.7.9.7,1.8s0,1-.2,1.5Z"/>
    <path class="cls-3" d="M1439,1507.9c-.6-.5-1.2-.9-1.8-1.2-.6-.3-1.3-.6-2.1-.8-.8-.2-1.7-.4-2.7-.4-1,0-2.2-.1-3.5-.1h-24.7c-2.5,0-4.8.2-6.6.6-1.9.4-3.5,1-4.8,2-1.3.9-2.4,2.1-3.3,3.6-.9,1.4-1.6,3.2-2.1,5.3l-6.5,25c-.3.8-.4,1.5-.5,1.9-.1.5-.2.8-.3,1.1,0,.3-.1.6-.1.9v1c0,3.1,1.1,5.6,3.3,7.7.5.5,1.1,1,1.7,1.3.6.3,1.2.6,2,.7.7.2,1.6.3,2.6.4,1,0,2.3,0,3.8,0h26c2.4,0,4.6-.2,6.3-.6,1.8-.4,3.3-1,4.6-1.9,1.3-.9,2.3-2.1,3.1-3.5.8-1.4,1.5-3.2,2-5.3l6.5-25.1c.5-1.8.7-3.4.7-4.5s-.3-3-.9-4.4c-.6-1.3-1.5-2.6-2.7-3.6ZM1422.6,1517.6l-.4,1.3-6.4,24.7c-.3,1.1-.5,1.9-.7,2.4-.2.5-.4,1-.7,1.2-.3.3-.6.4-1,.5-.5,0-1.1,0-1.9,0h-7.4c-.9,0-1.5,0-1.8,0-.4,0-.7-.1-1-.2-.4-.2-.7-.4-.9-.7-.2-.3-.3-.6-.3-.9s0-.4,0-.5c0-.2.2-.8.5-1.9l6.3-24.5c.2-1,.5-1.8.8-2.4.3-.6.6-1.1,1-1.4.4-.3.8-.5,1.4-.7.6-.1,1.3-.2,2.2-.2h7.2c3.5,0,3.5,1.4,3.5,1.9s0,.9-.2,1.4Z"/>
    <path class="cls-3" d="M1527.2,1509.4c.8-1.1,1.7-2.3,2.9-3.6l.4-.4h-13.4v1.8c0,.7-.1,1.5-.3,2.3-.2.9-.5,1.6-.9,2.3l-14.1,25.7.6-32.1h-19.4l-17.8,32.5.6-24.5c0-3.1.8-5.7,1.9-7.7l.2-.4h-23.3l.2.4c.9,1.9,1.4,4.3,1.4,7.3v1.8l-.9,41.9h19.5l17.7-32.1-.7,32.1h19.6l23.7-43.8c.7-1.3,1.4-2.5,2.2-3.6Z"/>
    <path class="cls-3" d="M1740.3,1546.1c-2.3,1.1-4.9,1.7-7.7,1.7h-13c-1.2,0-1.9,0-2.2,0-.3,0-.6,0-1-.2-1.1-.3-1.6-.9-1.6-1.9s0-.5,0-.8c0-.3.2-.8.4-1.4l6.6-25.6c.2-.8.4-1.4.7-1.9.2-.5.5-.8.9-1.1.4-.3.9-.4,1.6-.5.7,0,1.6-.1,2.8-.1h13.4c.8,0,1.4,0,2,0,.5,0,1,0,1.5.2.5.1,1,.3,1.5.5.5.2,1.1.5,1.8.8h.3c0,.1,1.1-10.5,1.1-10.5h-29c-2.7-.1-5.1,0-7.1.3-2,.3-3.8.9-5.2,1.8-1.5.9-2.7,2-3.6,3.4-.9,1.4-1.7,3.1-2.2,5.1l-6.9,26.8c-.4,1.3-.6,2.3-.7,2.9-.1.6-.2,1.2-.2,1.8,0,1.7.5,3.3,1.4,4.8.9,1.5,2.1,2.6,3.7,3.3.5.3,1,.5,1.4.6.4.1,1,.2,1.7.3.7,0,1.6.1,2.7.2,1.1,0,2.7,0,4.7.1h26.3l4.4-11-.6.3Z"/>
    <path class="cls-3" d="M1855.9,1547.2c-.7.2-1.6.3-2.6.4-1,0-2.3.1-3.8.2-1.5,0-3.3,0-5.6,0h-12.3l8.6-33.5c.3-1.1.6-2.1.8-2.8.3-.8.5-1.5.8-2.1.2-.6.5-1.2.9-1.7.4-.6.8-1.2,1.2-1.9l.3-.4h-23.7v.4c.3.5.4,1,.5,1.4,0,.4,0,.8,0,1.2s0,1.2-.1,2.1c-.1.9-.2,1.5-.3,1.9l-9.2,35.5c-.3,1.1-.6,2.1-.8,2.9-.3.8-.5,1.5-.8,2.1-.2.6-.6,1.2-.9,1.8-.3.6-.7,1.2-1.2,1.9l-.2.3-.3-.3c-.5-.5-.8-.9-1.2-1.3-.3-.4-.6-.9-.8-1.5-.2-.6-.5-1.3-.8-2.1-.2-.8-.5-1.9-.8-3.2l-8.8-42.6v-.2h-28.7l1.4.5c1.1.4,1.9.8,2.3,1.1.4.3,1,.8,1.6,1.6l-27.3,40.6c-1.3,1.8-2.4,3.2-3.3,4.2-.9,1-1.9,2-3,2.9l-.5.5h14.7v-.3c-.2-.4-.3-.5-.3-.6v-.6c0-1,.5-2.3,1.6-3.8l5.6-8.4h23.5l1,5.1c.4,2,.6,3.5.6,4.5s0,1.1-.3,1.7c-.2.5-.5,1.3-.9,2.1l-.2.4h72.1l4.1-10.3-.5.2c-.9.3-1.7.5-2.4.6ZM1764.5,1534.7l12.4-18.6,3.8,18.6h-16.2Z"/>
    <path class="cls-3" d="M1886,1505.3c-2.7-.1-5.1,0-7.1.3-2,.3-3.8.9-5.2,1.8-1.5.9-2.7,2-3.6,3.4-.9,1.4-1.7,3.1-2.2,5.1l-6.9,26.8c-.4,1.3-.6,2.3-.7,2.9-.1.6-.2,1.2-.2,1.8,0,1.7.5,3.3,1.4,4.8.9,1.5,2.1,2.6,3.7,3.3.5.3,1,.5,1.4.6.4.1,1,.2,1.7.3.7,0,1.6.1,2.7.2,1.1,0,2.7,0,4.7.1h26.3l4.4-11-.6.3c-2.3,1.1-4.9,1.7-7.7,1.7h-13c-1.2,0-1.9,0-2.2,0-.3,0-.6,0-1-.2-1.1-.3-1.6-.9-1.6-1.9s0-.5,0-.8c0-.3.2-.8.4-1.4l6.6-25.6c.2-.8.4-1.4.7-1.9.2-.5.5-.8.9-1.1.4-.3.9-.4,1.6-.5.7,0,1.6-.1,2.8-.1h13.4c.8,0,1.4,0,2,0,.5,0,1,0,1.5.2.5.1,1,.3,1.5.5.5.2,1.1.5,1.8.8h.3c0,.1,1.1-10.5,1.1-10.5h-29Z"/>
    <path class="cls-3" d="M1567,1546.7c-1,.4-1.9.7-2.7.9-.8.2-1.7.3-2.6.3h-19.6l3.3-12.7h11.3l10-9c-.1,0-.3,0-.4,0h-18.7l3.1-11.8h18.6c1.4,0,2.6,0,3.3.2.8.1,1.6.5,2.6,1l.3.2,1.3-10.4h-45.8v.4c.3.5.4,1,.5,1.4,0,.4,0,.8,0,1.2s0,1.2-.2,2.1c-.1.9-.2,1.5-.3,1.9l-9.2,35.5c-.3,1.1-.6,2.1-.8,2.9-.3.8-.5,1.5-.8,2.1-.2.6-.6,1.2-.9,1.8-.3.6-.7,1.2-1.2,1.9l-.3.4h45.5l4.1-10.3-.6.2Z"/>
    <path class="cls-3" d="M1627.8,1529.7c.2-.7.5-1.6.8-2.8l2.2-8.6c.1-.3.2-.9.3-1.7.1-.8.2-1.4.2-1.7,0-1.4-.4-2.8-1.2-4.2-.8-1.4-1.8-2.6-3.1-3.5-.6-.4-1.1-.7-1.6-.9-.5-.3-1.1-.5-1.8-.6-.7-.1-1.5-.2-2.4-.2-1,0-2.2,0-3.6,0h-38.4v.4c.3.5.4,1,.5,1.4,0,.4,0,.8,0,1.2s0,1.2-.2,2.1c-.1.9-.2,1.5-.3,1.9l-7.6,29.4-1.6,6.2c-.3,1.1-.6,2.1-.8,2.9-.3.8-.5,1.5-.8,2.1-.2.6-.5,1.2-.9,1.8-.3.5-.7,1.1-1.2,1.8l-.3.4h23.7l-.2-.4c-.2-.5-.4-1-.4-1.3,0-.3,0-.8,0-1.3s0-1.2.2-2c0-.8.2-1.5.4-2l3.8-14.9h4.6l4.2,21.8h22.3l-.5-.5c-.5-.5-.9-.9-1.2-1.3-.3-.4-.6-.8-.8-1.2-.2-.4-.4-.8-.5-1.4-.1-.5-.3-1.1-.5-1.8l-3.1-15.7c.2,0,.3,0,.5,0h.7c1.2,0,2.5-.2,3.7-.5,1.2-.4,2.2-.9,2.9-1.5.3-.3.6-.5.8-.8.2-.2.4-.6.6-1,.2-.4.4-.9.6-1.6ZM1610.8,1517.7l-1.3,5.1c-.1.7-.3,1.2-.5,1.6-.2.4-.4.6-.7.9-.3.2-.7.3-1.2.4-.5,0-1.2.1-2,.1h-9.1l2.9-11.5h9.6c1,0,1.7.1,2.2.4.4.2.6.6.6,1.3s0,1.1-.3,1.7Z"/>
    <polygon class="cls-3" points="1666.2 1528.9 1682.7 1499.9 1641.2 1537.2 1659.9 1540.5 1642.8 1569.4 1685.5 1532.3 1666.2 1528.9"/>
  </g>
  <rect class="cls-2" x="1020" width="1000" height="1000"/>
  <g>
    <g>
      <path class="cls-3" d="M1349.7,573.4c-2.6-1.2-5.8-1.8-9.4-1.8h-17.6v40.6h9.4v-11.2h8.2c3.6,0,6.8-.6,9.4-1.8,2.6-1.2,4.7-2.9,6.1-5.1,1.4-2.2,2.1-4.8,2.1-7.8s-.7-5.7-2.1-7.9c-1.4-2.2-3.5-3.9-6.1-5.1ZM1346.3,591.5c-1.4,1.2-3.6,1.9-6.5,1.9h-7.6v-14.1h7.6c2.9,0,5.1.6,6.5,1.9,1.4,1.2,2.1,3,2.1,5.2s-.7,3.9-2.1,5.2Z"/>
      <path class="cls-3" d="M1400.7,576.9c-2-1.9-4.3-3.4-7-4.4-2.7-1-5.6-1.6-8.8-1.6s-6.1.5-8.8,1.6c-2.7,1-5.1,2.5-7.1,4.4-2,1.9-3.6,4.1-4.7,6.7-1.1,2.6-1.7,5.3-1.7,8.3s.6,5.8,1.7,8.3c1.1,2.6,2.6,4.8,4.6,6.7,2,1.9,4.3,3.4,7.1,4.4,2.7,1,5.7,1.6,8.9,1.6s6.1-.5,8.8-1.6c2.7-1,5-2.5,7-4.4,2-1.9,3.5-4.1,4.7-6.7,1.1-2.6,1.7-5.4,1.7-8.4s-.6-5.8-1.7-8.4c-1.1-2.5-2.7-4.7-4.7-6.6ZM1396.5,597.2c-.6,1.6-1.5,3-2.7,4.1-1.2,1.2-2.5,2-4,2.7-1.5.6-3.2.9-5,.9s-3.5-.3-5-.9c-1.5-.6-2.9-1.5-4-2.7-1.1-1.2-2-2.5-2.7-4.1-.6-1.6-1-3.4-1-5.2s.3-3.7,1-5.3c.6-1.6,1.5-3,2.7-4.1,1.2-1.2,2.5-2,4-2.7,1.5-.6,3.2-.9,5-.9s3.5.3,5,.9c1.5.6,2.9,1.5,4,2.7,1.1,1.2,2,2.5,2.7,4.1.6,1.6,1,3.3,1,5.3s-.3,3.7-1,5.3Z"/>
      <polygon class="cls-3" points="1455.6 600.4 1446.3 571.6 1437.7 571.6 1428.1 600.1 1418.9 571.6 1409.2 571.6 1422.5 612.2 1432.6 612.2 1441.7 584.7 1450.7 612.2 1460.8 612.2 1474 571.6 1465.1 571.6 1455.6 600.4"/>
      <polygon class="cls-3" points="1488.6 595.3 1507.4 595.3 1507.4 588 1488.6 588 1488.6 579.2 1509.9 579.2 1509.9 571.6 1479.3 571.6 1479.3 612.2 1510.7 612.2 1510.7 604.7 1488.6 604.7 1488.6 595.3"/>
      <path class="cls-3" d="M1545.1,599.2c2.6-1.2,4.7-2.8,6.1-5,1.4-2.2,2.1-4.8,2.1-7.8s-.7-5.7-2.1-7.9c-1.4-2.2-3.5-3.9-6.1-5.1-2.6-1.2-5.8-1.8-9.4-1.8h-17.6v40.6h9.4v-11.3h8.2c.1,0,.3,0,.4,0l7.8,11.3h10.1l-9.1-13s0,0,0,0ZM1541.7,581.1c1.4,1.2,2.1,3,2.1,5.2s-.7,3.9-2.1,5.2c-1.4,1.3-3.6,1.9-6.5,1.9h-7.6v-14.1h7.6c2.9,0,5.1.6,6.5,1.9Z"/>
      <path class="cls-3" d="M1571.3,582.5c1.2-1.2,2.5-2,4.1-2.7,1.6-.6,3.3-.9,5.2-.9s3.9.4,5.6,1.2c1.7.8,3.2,2,4.6,3.6l6-5.6c-1.9-2.4-4.3-4.1-7.2-5.4-2.8-1.2-6-1.8-9.5-1.8s-6.1.5-8.7,1.5c-2.7,1-5,2.5-7,4.4-2,1.9-3.5,4.1-4.6,6.7-1.1,2.6-1.7,5.4-1.7,8.4s.6,5.9,1.7,8.4c1.1,2.6,2.6,4.8,4.6,6.7,2,1.9,4.3,3.4,7,4.4,2.7,1,5.6,1.5,8.7,1.5s6.8-.6,9.6-1.9c2.8-1.2,5.2-3,7.2-5.4l-6-5.6c-1.4,1.6-2.9,2.8-4.6,3.6-1.7.8-3.6,1.2-5.6,1.2s-3.6-.3-5.2-.9c-1.6-.6-3-1.5-4.1-2.7-1.2-1.2-2.1-2.5-2.7-4.1-.6-1.6-1-3.3-1-5.3s.3-3.7,1-5.3c.6-1.6,1.5-3,2.7-4.1Z"/>
      <path class="cls-3" d="M1615.2,571.6l-18.1,40.6h9.6l3.6-8.7h18.8l3.6,8.7h9.9l-18.1-40.6h-9.3ZM1613.3,596.4l6.5-15.5,6.4,15.5h-12.9Z"/>
      <polygon class="cls-3" points="1656.2 571.6 1646.8 571.6 1646.8 612.2 1676.5 612.2 1676.5 604.5 1656.2 604.5 1656.2 571.6"/>
      <path class="cls-3" d="M1706.6,603.7c-1.7.8-3.6,1.2-5.6,1.2s-3.6-.3-5.2-.9c-1.6-.6-3-1.5-4.1-2.7-1.2-1.2-2.1-2.5-2.7-4.1-.6-1.6-1-3.3-1-5.3s.3-3.7,1-5.3c.6-1.6,1.5-3,2.7-4.1,1.2-1.2,2.5-2,4.1-2.7,1.6-.6,3.3-.9,5.2-.9s3.9.4,5.6,1.2c1.7.8,3.2,2,4.6,3.6l6-5.6c-1.9-2.4-4.3-4.1-7.2-5.4-2.8-1.2-6-1.8-9.5-1.8s-6.1.5-8.7,1.5c-2.7,1-5,2.5-7,4.4-2,1.9-3.5,4.1-4.6,6.7-1.1,2.6-1.7,5.4-1.7,8.4s.6,5.9,1.7,8.4c1.1,2.6,2.6,4.8,4.6,6.7,2,1.9,4.3,3.4,7,4.4,2.7,1,5.6,1.5,8.7,1.5s6.8-.6,9.6-1.9c2.8-1.2,5.2-3,7.2-5.4l-6-5.6c-1.4,1.6-2.9,2.8-4.6,3.6Z"/>
    </g>
    <path class="cls-3" d="M1507.8,453.8l-20.2,17.1v-58.2c0-1.5,1.2-2.8,2.8-2.8h17.5v43.8ZM1534.3,431.4l-20.2,17.1v-38.6h20.2v21.4ZM1540.5,426.2v-16.2h19.1l-19.1,16.2ZM1482.7,535.3s0,0,0,0l18-31.4,1.2-2,13.3-23.3h-26.7c-1,0-1.4-1.2-.7-1.8l20-17,6.2-5.2,20.2-17.1,6.2-5.2,20.2-17.1-20.2,36.6-6.2,11.2h17.5c1.9,0,3.2,2,2.3,3.7l-23.6,47.1,5.5-.5c15.3-1.3,28.9-8,39.2-18.3,11.3-11.3,18.4-27,18.5-44.2.2-35-29.3-63.6-64.3-63.6h-37.9c-13.3,0-24.2,10.8-24.2,24.2v119.9c0,8.4,11.1,11.4,15.3,4.1h0Z"/>
  </g>
  <g>
    <g>
      <path class="cls-2" d="M329.7,573.4c-2.6-1.2-5.8-1.8-9.4-1.8h-17.6v40.6h9.4v-11.2h8.2c3.6,0,6.8-.6,9.4-1.8,2.6-1.2,4.7-2.9,6.1-5.1,1.4-2.2,2.1-4.8,2.1-7.8s-.7-5.7-2.1-7.9c-1.4-2.2-3.5-3.9-6.1-5.1ZM326.3,591.5c-1.4,1.2-3.6,1.9-6.5,1.9h-7.6v-14.1h7.6c2.9,0,5.1.6,6.5,1.9,1.4,1.2,2.1,3,2.1,5.2s-.7,3.9-2.1,5.2Z"/>
      <path class="cls-2" d="M380.7,576.9c-2-1.9-4.3-3.4-7-4.4-2.7-1-5.6-1.6-8.8-1.6s-6.1.5-8.8,1.6c-2.7,1-5.1,2.5-7.1,4.4-2,1.9-3.6,4.1-4.7,6.7-1.1,2.6-1.7,5.3-1.7,8.3s.6,5.8,1.7,8.3c1.1,2.6,2.6,4.8,4.6,6.7,2,1.9,4.3,3.4,7.1,4.4,2.7,1,5.7,1.6,8.9,1.6s6.1-.5,8.8-1.6c2.7-1,5-2.5,7-4.4,2-1.9,3.5-4.1,4.7-6.7,1.1-2.6,1.7-5.4,1.7-8.4s-.6-5.8-1.7-8.4c-1.1-2.5-2.7-4.7-4.7-6.6ZM376.5,597.2c-.6,1.6-1.5,3-2.7,4.1-1.2,1.2-2.5,2-4,2.7-1.5.6-3.2.9-5,.9s-3.5-.3-5-.9c-1.5-.6-2.9-1.5-4-2.7-1.1-1.2-2-2.5-2.7-4.1-.6-1.6-1-3.4-1-5.2s.3-3.7,1-5.3c.6-1.6,1.5-3,2.7-4.1,1.2-1.2,2.5-2,4-2.7,1.5-.6,3.2-.9,5-.9s3.5.3,5,.9c1.5.6,2.9,1.5,4,2.7,1.1,1.2,2,2.5,2.7,4.1.6,1.6,1,3.3,1,5.3s-.3,3.7-1,5.3Z"/>
      <polygon class="cls-2" points="435.6 600.4 426.3 571.6 417.7 571.6 408.1 600.1 398.9 571.6 389.2 571.6 402.5 612.2 412.6 612.2 421.7 584.7 430.7 612.2 440.8 612.2 454 571.6 445.1 571.6 435.6 600.4"/>
      <polygon class="cls-2" points="468.6 595.3 487.4 595.3 487.4 588 468.6 588 468.6 579.2 489.9 579.2 489.9 571.6 459.3 571.6 459.3 612.2 490.7 612.2 490.7 604.7 468.6 604.7 468.6 595.3"/>
      <path class="cls-2" d="M525.1,599.2c2.6-1.2,4.7-2.8,6.1-5,1.4-2.2,2.1-4.8,2.1-7.8s-.7-5.7-2.1-7.9c-1.4-2.2-3.5-3.9-6.1-5.1-2.6-1.2-5.8-1.8-9.4-1.8h-17.6v40.6h9.4v-11.3h8.2c.1,0,.3,0,.4,0l7.8,11.3h10.1l-9.1-13s0,0,0,0ZM521.7,581.1c1.4,1.2,2.1,3,2.1,5.2s-.7,3.9-2.1,5.2c-1.4,1.3-3.6,1.9-6.5,1.9h-7.6v-14.1h7.6c2.9,0,5.1.6,6.5,1.9Z"/>
      <path class="cls-2" d="M551.3,582.5c1.2-1.2,2.5-2,4.1-2.7,1.6-.6,3.3-.9,5.2-.9s3.9.4,5.6,1.2c1.7.8,3.2,2,4.6,3.6l6-5.6c-1.9-2.4-4.3-4.1-7.2-5.4-2.8-1.2-6-1.8-9.5-1.8s-6.1.5-8.7,1.5c-2.7,1-5,2.5-7,4.4-2,1.9-3.5,4.1-4.6,6.7-1.1,2.6-1.7,5.4-1.7,8.4s.6,5.9,1.7,8.4c1.1,2.6,2.6,4.8,4.6,6.7,2,1.9,4.3,3.4,7,4.4,2.7,1,5.6,1.5,8.7,1.5s6.8-.6,9.6-1.9c2.8-1.2,5.2-3,7.2-5.4l-6-5.6c-1.4,1.6-2.9,2.8-4.6,3.6-1.7.8-3.6,1.2-5.6,1.2s-3.6-.3-5.2-.9c-1.6-.6-3-1.5-4.1-2.7-1.2-1.2-2.1-2.5-2.7-4.1-.6-1.6-1-3.3-1-5.3s.3-3.7,1-5.3c.6-1.6,1.5-3,2.7-4.1Z"/>
      <path class="cls-2" d="M595.2,571.6l-18.1,40.6h9.6l3.6-8.7h18.8l3.6,8.7h9.9l-18.1-40.6h-9.3ZM593.3,596.4l6.5-15.5,6.4,15.5h-12.9Z"/>
      <polygon class="cls-2" points="636.2 571.6 626.8 571.6 626.8 612.2 656.5 612.2 656.5 604.5 636.2 604.5 636.2 571.6"/>
      <path class="cls-2" d="M686.6,603.7c-1.7.8-3.6,1.2-5.6,1.2s-3.6-.3-5.2-.9c-1.6-.6-3-1.5-4.1-2.7-1.2-1.2-2.1-2.5-2.7-4.1-.6-1.6-1-3.3-1-5.3s.3-3.7,1-5.3c.6-1.6,1.5-3,2.7-4.1,1.2-1.2,2.5-2,4.1-2.7,1.6-.6,3.3-.9,5.2-.9s3.9.4,5.6,1.2c1.7.8,3.2,2,4.6,3.6l6-5.6c-1.9-2.4-4.3-4.1-7.2-5.4-2.8-1.2-6-1.8-9.5-1.8s-6.1.5-8.7,1.5c-2.7,1-5,2.5-7,4.4-2,1.9-3.5,4.1-4.6,6.7-1.1,2.6-1.7,5.4-1.7,8.4s.6,5.9,1.7,8.4c1.1,2.6,2.6,4.8,4.6,6.7,2,1.9,4.3,3.4,7,4.4,2.7,1,5.6,1.5,8.7,1.5s6.8-.6,9.6-1.9c2.8-1.2,5.2-3,7.2-5.4l-6-5.6c-1.4,1.6-2.9,2.8-4.6,3.6Z"/>
    </g>
    <path class="cls-2" d="M487.8,453.8l-20.2,17.1v-58.2c0-1.5,1.2-2.8,2.8-2.8h17.5v43.8ZM514.3,431.4l-20.2,17.1v-38.6h20.2v21.4ZM520.5,426.2v-16.2h19.1l-19.1,16.2ZM462.7,535.3s0,0,0,0l18-31.4,1.2-2,13.3-23.3h-26.7c-1,0-1.4-1.2-.7-1.8l20-17,6.2-5.2,20.2-17.1,6.2-5.2,20.2-17.1-20.2,36.6-6.2,11.2h17.5c1.9,0,3.2,2,2.3,3.7l-23.6,47.1,5.5-.5c15.3-1.3,28.9-8,39.2-18.3,11.3-11.3,18.4-27,18.5-44.2.2-35-29.3-63.6-64.3-63.6h-37.9c-13.3,0-24.2,10.8-24.2,24.2v119.9c0,8.4,11.1,11.4,15.3,4.1h0Z"/>
  </g>
</svg>
