<?xml version="1.0" encoding="UTF-8"?>
<svg id="Layer_2" data-name="Layer 2" xmlns="http://www.w3.org/2000/svg" viewBox="0 0 50.41 60.79">
  <defs>
    <style>
      .cls-1 {
        fill: #fff;
        stroke-width: 0px;
      }
    </style>
  </defs>
  <g id="Layer_1-2" data-name="Layer 1">
    <path class="cls-1" d="M16.17,26.61l-8.08,6.84V10.25c0-.61.5-1.11,1.11-1.11h6.97v17.48ZM26.72,17.69l-8.08,6.84v-15.39h8.08v8.55ZM29.19,15.59v-6.46h7.63l-7.63,6.46ZM6.11,59.15s0-.01.01-.02l7.18-12.54.47-.81,5.31-9.29h-10.65c-.39,0-.57-.48-.27-.73l8-6.77,2.47-2.09,8.08-6.84,2.47-2.09,8.08-6.84-8.08,14.61-2.47,4.48h6.98c.77,0,1.26.81.92,1.49l-9.41,18.81,2.19-.19c6.09-.52,11.55-3.21,15.63-7.29,4.53-4.52,7.34-10.76,7.38-17.65.09-13.95-11.7-25.37-25.65-25.37h-15.11C4.32,0,0,4.32,0,9.64v47.87c0,3.35,4.44,4.54,6.11,1.65h0Z"/>
  </g>
</svg>
