<?xml version="1.0" encoding="UTF-8"?>
<svg id="Layer_2" data-name="Layer 2" xmlns="http://www.w3.org/2000/svg" viewBox="0 0 126.3 152.31">
  <defs>
    <style>
      .cls-1 {
        fill: #5488e8;
        stroke-width: 0px;
      }
    </style>
  </defs>
  <g id="Layer_1-2" data-name="Layer 1">
    <path class="cls-1" d="M40.5,66.68l-20.24,17.14V25.67c0-1.53,1.24-2.78,2.78-2.78h17.47v43.79ZM66.94,44.31l-20.24,17.14V22.89h20.24v21.42ZM73.14,39.07v-16.17h19.12l-19.12,16.17ZM15.31,148.21s.01-.03.03-.04l17.99-31.43,1.18-2.04,13.31-23.28h-26.68c-.97,0-1.42-1.21-.67-1.84l20.04-16.96,6.2-5.25,20.24-17.14,6.2-5.25,20.24-17.14-20.24,36.6-6.2,11.21h17.49c1.92,0,3.17,2.02,2.31,3.73l-23.58,47.13,5.48-.47c15.25-1.31,28.94-8.04,39.16-18.26,11.34-11.33,18.4-26.97,18.5-44.22C126.53,28.61,96.98,0,62.02,0H24.15C10.81,0,0,10.81,0,24.15v119.93c0,8.4,11.11,11.37,15.31,4.14h0Z"/>
  </g>
</svg>
