<?xml version="1.0" encoding="utf-8" standalone="no"?>
<!DOCTYPE svg PUBLIC "-//W3C//DTD SVG 1.1//EN"
  "http://www.w3.org/Graphics/SVG/1.1/DTD/svg11.dtd">
<svg xmlns:xlink="http://www.w3.org/1999/xlink" width="720pt" height="432pt" viewBox="0 0 720 432" xmlns="http://www.w3.org/2000/svg" version="1.1">
 <metadata>
  <rdf:RDF xmlns:dc="http://purl.org/dc/elements/1.1/" xmlns:cc="http://creativecommons.org/ns#" xmlns:rdf="http://www.w3.org/1999/02/22-rdf-syntax-ns#">
   <cc:Work>
    <dc:type rdf:resource="http://purl.org/dc/dcmitype/StillImage"/>
    <dc:format>image/svg+xml</dc:format>
    <dc:creator>
     <cc:Agent>
      <dc:title>Matplotlib v3.11.1, https://matplotlib.org/</dc:title>
     </cc:Agent>
    </dc:creator>
   </cc:Work>
  </rdf:RDF>
 </metadata>
 <defs>
  <style type="text/css">*{stroke-linejoin: round; stroke-linecap: butt}</style>
 </defs>
 <g id="figure_1">
  <g id="patch_1">
   <path d="M 0 432 
L 720 432 
L 720 0 
L 0 0 
z
" style="fill: #ffffff"/>
  </g>
  <g id="axes_1">
   <g id="patch_2">
    <path d="M 45.082344 389.877656 
L 709.2 389.877656 
L 709.2 26.16 
L 45.082344 26.16 
z
" style="fill: #ffffff"/>
   </g>
   <g id="PathCollection_1">
    <defs>
     <path id="C0_0_df01e43a6d" d="M 0 0.790569 
C 0.209661 0.790569 0.410764 0.70727 0.559017 0.559017 
C 0.70727 0.410764 0.790569 0.209661 0.790569 -0 
C 0.790569 -0.209661 0.70727 -0.410764 0.559017 -0.559017 
C 0.410764 -0.70727 0.209661 -0.790569 0 -0.790569 
C -0.209661 -0.790569 -0.410764 -0.70727 -0.559017 -0.559017 
C -0.70727 -0.410764 -0.790569 -0.209661 -0.790569 0 
C -0.790569 0.209661 -0.70727 0.410764 -0.559017 0.559017 
C -0.410764 0.70727 -0.209661 0.790569 0 0.790569 
z
"/>
    </defs>
    <g clip-path="url(#pa1a3ca7d54)">
     <use xlink:href="#C0_0_df01e43a6d" x="75.26951" y="373.345036" style="fill: #5488e8; stroke: #5488e8"/>
    </g>
    <g clip-path="url(#pa1a3ca7d54)">
     <use xlink:href="#C0_0_df01e43a6d" x="82.400337" y="373.345036" style="fill: #5488e8; stroke: #5488e8"/>
    </g>
    <g clip-path="url(#pa1a3ca7d54)">
     <use xlink:href="#C0_0_df01e43a6d" x="89.531163" y="373.099197" style="fill: #5488e8; stroke: #5488e8"/>
    </g>
    <g clip-path="url(#pa1a3ca7d54)">
     <use xlink:href="#C0_0_df01e43a6d" x="96.66199" y="373.099197" style="fill: #5488e8; stroke: #5488e8"/>
    </g>
    <g clip-path="url(#pa1a3ca7d54)">
     <use xlink:href="#C0_0_df01e43a6d" x="103.792817" y="371.870006" style="fill: #5488e8; stroke: #5488e8"/>
    </g>
    <g clip-path="url(#pa1a3ca7d54)">
     <use xlink:href="#C0_0_df01e43a6d" x="110.923643" y="369.657462" style="fill: #5488e8; stroke: #5488e8"/>
    </g>
    <g clip-path="url(#pa1a3ca7d54)">
     <use xlink:href="#C0_0_df01e43a6d" x="118.05447" y="367.936595" style="fill: #5488e8; stroke: #5488e8"/>
    </g>
    <g clip-path="url(#pa1a3ca7d54)">
     <use xlink:href="#C0_0_df01e43a6d" x="125.185297" y="367.444918" style="fill: #5488e8; stroke: #5488e8"/>
    </g>
    <g clip-path="url(#pa1a3ca7d54)">
     <use xlink:href="#C0_0_df01e43a6d" x="132.316123" y="365.969889" style="fill: #5488e8; stroke: #5488e8"/>
    </g>
    <g clip-path="url(#pa1a3ca7d54)">
     <use xlink:href="#C0_0_df01e43a6d" x="139.44695" y="365.72405" style="fill: #5488e8; stroke: #5488e8"/>
    </g>
    <g clip-path="url(#pa1a3ca7d54)">
     <use xlink:href="#C0_0_df01e43a6d" x="146.577777" y="364.986536" style="fill: #5488e8; stroke: #5488e8"/>
    </g>
    <g clip-path="url(#pa1a3ca7d54)">
     <use xlink:href="#C0_0_df01e43a6d" x="153.708603" y="363.511506" style="fill: #5488e8; stroke: #5488e8"/>
    </g>
    <g clip-path="url(#pa1a3ca7d54)">
     <use xlink:href="#C0_0_df01e43a6d" x="160.83943" y="363.01983" style="fill: #5488e8; stroke: #5488e8"/>
    </g>
    <g clip-path="url(#pa1a3ca7d54)">
     <use xlink:href="#C0_0_df01e43a6d" x="167.970257" y="362.036477" style="fill: #5488e8; stroke: #5488e8"/>
    </g>
    <g clip-path="url(#pa1a3ca7d54)">
     <use xlink:href="#C0_0_df01e43a6d" x="175.101083" y="360.31561" style="fill: #5488e8; stroke: #5488e8"/>
    </g>
    <g clip-path="url(#pa1a3ca7d54)">
     <use xlink:href="#C0_0_df01e43a6d" x="182.23191" y="359.578095" style="fill: #5488e8; stroke: #5488e8"/>
    </g>
    <g clip-path="url(#pa1a3ca7d54)">
     <use xlink:href="#C0_0_df01e43a6d" x="189.362737" y="357.611389" style="fill: #5488e8; stroke: #5488e8"/>
    </g>
    <g clip-path="url(#pa1a3ca7d54)">
     <use xlink:href="#C0_0_df01e43a6d" x="196.493563" y="356.873874" style="fill: #5488e8; stroke: #5488e8"/>
    </g>
    <g clip-path="url(#pa1a3ca7d54)">
     <use xlink:href="#C0_0_df01e43a6d" x="203.62439" y="354.907169" style="fill: #5488e8; stroke: #5488e8"/>
    </g>
    <g clip-path="url(#pa1a3ca7d54)">
     <use xlink:href="#C0_0_df01e43a6d" x="210.755216" y="352.940463" style="fill: #5488e8; stroke: #5488e8"/>
    </g>
    <g clip-path="url(#pa1a3ca7d54)">
     <use xlink:href="#C0_0_df01e43a6d" x="217.886043" y="352.448786" style="fill: #5488e8; stroke: #5488e8"/>
    </g>
    <g clip-path="url(#pa1a3ca7d54)">
     <use xlink:href="#C0_0_df01e43a6d" x="225.01687" y="349.498728" style="fill: #5488e8; stroke: #5488e8"/>
    </g>
    <g clip-path="url(#pa1a3ca7d54)">
     <use xlink:href="#C0_0_df01e43a6d" x="232.147696" y="348.023698" style="fill: #5488e8; stroke: #5488e8"/>
    </g>
    <g clip-path="url(#pa1a3ca7d54)">
     <use xlink:href="#C0_0_df01e43a6d" x="239.278523" y="347.286183" style="fill: #5488e8; stroke: #5488e8"/>
    </g>
    <g clip-path="url(#pa1a3ca7d54)">
     <use xlink:href="#C0_0_df01e43a6d" x="246.40935" y="343.844448" style="fill: #5488e8; stroke: #5488e8"/>
    </g>
    <g clip-path="url(#pa1a3ca7d54)">
     <use xlink:href="#C0_0_df01e43a6d" x="253.540176" y="341.386066" style="fill: #5488e8; stroke: #5488e8"/>
    </g>
    <g clip-path="url(#pa1a3ca7d54)">
     <use xlink:href="#C0_0_df01e43a6d" x="260.671003" y="341.386066" style="fill: #5488e8; stroke: #5488e8"/>
    </g>
    <g clip-path="url(#pa1a3ca7d54)">
     <use xlink:href="#C0_0_df01e43a6d" x="267.80183" y="338.927684" style="fill: #5488e8; stroke: #5488e8"/>
    </g>
    <g clip-path="url(#pa1a3ca7d54)">
     <use xlink:href="#C0_0_df01e43a6d" x="274.932656" y="336.223463" style="fill: #5488e8; stroke: #5488e8"/>
    </g>
    <g clip-path="url(#pa1a3ca7d54)">
     <use xlink:href="#C0_0_df01e43a6d" x="282.063483" y="332.53589" style="fill: #5488e8; stroke: #5488e8"/>
    </g>
    <g clip-path="url(#pa1a3ca7d54)">
     <use xlink:href="#C0_0_df01e43a6d" x="289.19431" y="330.077508" style="fill: #5488e8; stroke: #5488e8"/>
    </g>
    <g clip-path="url(#pa1a3ca7d54)">
     <use xlink:href="#C0_0_df01e43a6d" x="296.325136" y="327.127449" style="fill: #5488e8; stroke: #5488e8"/>
    </g>
    <g clip-path="url(#pa1a3ca7d54)">
     <use xlink:href="#C0_0_df01e43a6d" x="303.455963" y="325.160743" style="fill: #5488e8; stroke: #5488e8"/>
    </g>
    <g clip-path="url(#pa1a3ca7d54)">
     <use xlink:href="#C0_0_df01e43a6d" x="310.58679" y="323.439876" style="fill: #5488e8; stroke: #5488e8"/>
    </g>
    <g clip-path="url(#pa1a3ca7d54)">
     <use xlink:href="#C0_0_df01e43a6d" x="317.717616" y="321.47317" style="fill: #5488e8; stroke: #5488e8"/>
    </g>
    <g clip-path="url(#pa1a3ca7d54)">
     <use xlink:href="#C0_0_df01e43a6d" x="324.848443" y="319.014787" style="fill: #5488e8; stroke: #5488e8"/>
    </g>
    <g clip-path="url(#pa1a3ca7d54)">
     <use xlink:href="#C0_0_df01e43a6d" x="331.97927" y="316.064729" style="fill: #5488e8; stroke: #5488e8"/>
    </g>
    <g clip-path="url(#pa1a3ca7d54)">
     <use xlink:href="#C0_0_df01e43a6d" x="339.110096" y="313.11467" style="fill: #5488e8; stroke: #5488e8"/>
    </g>
    <g clip-path="url(#pa1a3ca7d54)">
     <use xlink:href="#C0_0_df01e43a6d" x="346.240923" y="309.918773" style="fill: #5488e8; stroke: #5488e8"/>
    </g>
    <g clip-path="url(#pa1a3ca7d54)">
     <use xlink:href="#C0_0_df01e43a6d" x="353.37175" y="306.2312" style="fill: #5488e8; stroke: #5488e8"/>
    </g>
    <g clip-path="url(#pa1a3ca7d54)">
     <use xlink:href="#C0_0_df01e43a6d" x="360.502576" y="302.297788" style="fill: #5488e8; stroke: #5488e8"/>
    </g>
    <g clip-path="url(#pa1a3ca7d54)">
     <use xlink:href="#C0_0_df01e43a6d" x="367.633403" y="299.593568" style="fill: #5488e8; stroke: #5488e8"/>
    </g>
    <g clip-path="url(#pa1a3ca7d54)">
     <use xlink:href="#C0_0_df01e43a6d" x="374.76423" y="296.397671" style="fill: #5488e8; stroke: #5488e8"/>
    </g>
    <g clip-path="url(#pa1a3ca7d54)">
     <use xlink:href="#C0_0_df01e43a6d" x="381.895056" y="293.939288" style="fill: #5488e8; stroke: #5488e8"/>
    </g>
    <g clip-path="url(#pa1a3ca7d54)">
     <use xlink:href="#C0_0_df01e43a6d" x="389.025883" y="291.235068" style="fill: #5488e8; stroke: #5488e8"/>
    </g>
    <g clip-path="url(#pa1a3ca7d54)">
     <use xlink:href="#C0_0_df01e43a6d" x="396.15671" y="288.039171" style="fill: #5488e8; stroke: #5488e8"/>
    </g>
    <g clip-path="url(#pa1a3ca7d54)">
     <use xlink:href="#C0_0_df01e43a6d" x="403.287536" y="284.597436" style="fill: #5488e8; stroke: #5488e8"/>
    </g>
    <g clip-path="url(#pa1a3ca7d54)">
     <use xlink:href="#C0_0_df01e43a6d" x="410.418363" y="279.926509" style="fill: #5488e8; stroke: #5488e8"/>
    </g>
    <g clip-path="url(#pa1a3ca7d54)">
     <use xlink:href="#C0_0_df01e43a6d" x="417.54919" y="275.993098" style="fill: #5488e8; stroke: #5488e8"/>
    </g>
    <g clip-path="url(#pa1a3ca7d54)">
     <use xlink:href="#C0_0_df01e43a6d" x="424.680016" y="271.076333" style="fill: #5488e8; stroke: #5488e8"/>
    </g>
    <g clip-path="url(#pa1a3ca7d54)">
     <use xlink:href="#C0_0_df01e43a6d" x="431.810843" y="265.91373" style="fill: #5488e8; stroke: #5488e8"/>
    </g>
    <g clip-path="url(#pa1a3ca7d54)">
     <use xlink:href="#C0_0_df01e43a6d" x="438.94167" y="260.996966" style="fill: #5488e8; stroke: #5488e8"/>
    </g>
    <g clip-path="url(#pa1a3ca7d54)">
     <use xlink:href="#C0_0_df01e43a6d" x="446.072496" y="256.32604" style="fill: #5488e8; stroke: #5488e8"/>
    </g>
    <g clip-path="url(#pa1a3ca7d54)">
     <use xlink:href="#C0_0_df01e43a6d" x="453.203323" y="250.425922" style="fill: #5488e8; stroke: #5488e8"/>
    </g>
    <g clip-path="url(#pa1a3ca7d54)">
     <use xlink:href="#C0_0_df01e43a6d" x="460.33415" y="246.492511" style="fill: #5488e8; stroke: #5488e8"/>
    </g>
    <g clip-path="url(#pa1a3ca7d54)">
     <use xlink:href="#C0_0_df01e43a6d" x="467.464976" y="242.804937" style="fill: #5488e8; stroke: #5488e8"/>
    </g>
    <g clip-path="url(#pa1a3ca7d54)">
     <use xlink:href="#C0_0_df01e43a6d" x="474.595803" y="238.871526" style="fill: #5488e8; stroke: #5488e8"/>
    </g>
    <g clip-path="url(#pa1a3ca7d54)">
     <use xlink:href="#C0_0_df01e43a6d" x="481.72663" y="234.938114" style="fill: #5488e8; stroke: #5488e8"/>
    </g>
    <g clip-path="url(#pa1a3ca7d54)">
     <use xlink:href="#C0_0_df01e43a6d" x="488.857456" y="230.267188" style="fill: #5488e8; stroke: #5488e8"/>
    </g>
    <g clip-path="url(#pa1a3ca7d54)">
     <use xlink:href="#C0_0_df01e43a6d" x="495.988283" y="224.858747" style="fill: #5488e8; stroke: #5488e8"/>
    </g>
    <g clip-path="url(#pa1a3ca7d54)">
     <use xlink:href="#C0_0_df01e43a6d" x="503.11911" y="219.204467" style="fill: #5488e8; stroke: #5488e8"/>
    </g>
    <g clip-path="url(#pa1a3ca7d54)">
     <use xlink:href="#C0_0_df01e43a6d" x="510.249936" y="213.550188" style="fill: #5488e8; stroke: #5488e8"/>
    </g>
    <g clip-path="url(#pa1a3ca7d54)">
     <use xlink:href="#C0_0_df01e43a6d" x="517.380763" y="206.666718" style="fill: #5488e8; stroke: #5488e8"/>
    </g>
    <g clip-path="url(#pa1a3ca7d54)">
     <use xlink:href="#C0_0_df01e43a6d" x="524.51159" y="200.029086" style="fill: #5488e8; stroke: #5488e8"/>
    </g>
    <g clip-path="url(#pa1a3ca7d54)">
     <use xlink:href="#C0_0_df01e43a6d" x="531.642416" y="193.88313" style="fill: #5488e8; stroke: #5488e8"/>
    </g>
    <g clip-path="url(#pa1a3ca7d54)">
     <use xlink:href="#C0_0_df01e43a6d" x="538.773243" y="186.99966" style="fill: #5488e8; stroke: #5488e8"/>
    </g>
    <g clip-path="url(#pa1a3ca7d54)">
     <use xlink:href="#C0_0_df01e43a6d" x="545.904069" y="180.853704" style="fill: #5488e8; stroke: #5488e8"/>
    </g>
    <g clip-path="url(#pa1a3ca7d54)">
     <use xlink:href="#C0_0_df01e43a6d" x="553.034896" y="174.707748" style="fill: #5488e8; stroke: #5488e8"/>
    </g>
    <g clip-path="url(#pa1a3ca7d54)">
     <use xlink:href="#C0_0_df01e43a6d" x="560.165723" y="168.807631" style="fill: #5488e8; stroke: #5488e8"/>
    </g>
    <g clip-path="url(#pa1a3ca7d54)">
     <use xlink:href="#C0_0_df01e43a6d" x="567.296549" y="163.153352" style="fill: #5488e8; stroke: #5488e8"/>
    </g>
    <g clip-path="url(#pa1a3ca7d54)">
     <use xlink:href="#C0_0_df01e43a6d" x="574.427376" y="157.007396" style="fill: #5488e8; stroke: #5488e8"/>
    </g>
    <g clip-path="url(#pa1a3ca7d54)">
     <use xlink:href="#C0_0_df01e43a6d" x="581.558203" y="151.107279" style="fill: #5488e8; stroke: #5488e8"/>
    </g>
    <g clip-path="url(#pa1a3ca7d54)">
     <use xlink:href="#C0_0_df01e43a6d" x="588.689029" y="144.715485" style="fill: #5488e8; stroke: #5488e8"/>
    </g>
    <g clip-path="url(#pa1a3ca7d54)">
     <use xlink:href="#C0_0_df01e43a6d" x="595.819856" y="137.832014" style="fill: #5488e8; stroke: #5488e8"/>
    </g>
    <g clip-path="url(#pa1a3ca7d54)">
     <use xlink:href="#C0_0_df01e43a6d" x="602.950683" y="129.965191" style="fill: #5488e8; stroke: #5488e8"/>
    </g>
    <g clip-path="url(#pa1a3ca7d54)">
     <use xlink:href="#C0_0_df01e43a6d" x="610.081509" y="121.115015" style="fill: #5488e8; stroke: #5488e8"/>
    </g>
    <g clip-path="url(#pa1a3ca7d54)">
     <use xlink:href="#C0_0_df01e43a6d" x="617.212336" y="112.264839" style="fill: #5488e8; stroke: #5488e8"/>
    </g>
    <g clip-path="url(#pa1a3ca7d54)">
     <use xlink:href="#C0_0_df01e43a6d" x="624.343163" y="104.152177" style="fill: #5488e8; stroke: #5488e8"/>
    </g>
    <g clip-path="url(#pa1a3ca7d54)">
     <use xlink:href="#C0_0_df01e43a6d" x="631.473989" y="95.547839" style="fill: #5488e8; stroke: #5488e8"/>
    </g>
    <g clip-path="url(#pa1a3ca7d54)">
     <use xlink:href="#C0_0_df01e43a6d" x="638.604816" y="88.664369" style="fill: #5488e8; stroke: #5488e8"/>
    </g>
    <g clip-path="url(#pa1a3ca7d54)">
     <use xlink:href="#C0_0_df01e43a6d" x="645.735643" y="80.305869" style="fill: #5488e8; stroke: #5488e8"/>
    </g>
    <g clip-path="url(#pa1a3ca7d54)">
     <use xlink:href="#C0_0_df01e43a6d" x="652.866469" y="70.964017" style="fill: #5488e8; stroke: #5488e8"/>
    </g>
    <g clip-path="url(#pa1a3ca7d54)">
     <use xlink:href="#C0_0_df01e43a6d" x="659.997296" y="62.359679" style="fill: #5488e8; stroke: #5488e8"/>
    </g>
    <g clip-path="url(#pa1a3ca7d54)">
     <use xlink:href="#C0_0_df01e43a6d" x="667.128123" y="53.755341" style="fill: #5488e8; stroke: #5488e8"/>
    </g>
    <g clip-path="url(#pa1a3ca7d54)">
     <use xlink:href="#C0_0_df01e43a6d" x="674.258949" y="45.396841" style="fill: #5488e8; stroke: #5488e8"/>
    </g>
    <g clip-path="url(#pa1a3ca7d54)">
     <use xlink:href="#C0_0_df01e43a6d" x="679.012834" y="42.692621" style="fill: #5488e8; stroke: #5488e8"/>
    </g>
   </g>
   <g id="matplotlib.axis_1">
    <g id="xtick_1">
     <g id="line2d_1">
      <path d="M 72.892568 389.877656 
L 72.892568 26.16 
" clip-path="url(#pa1a3ca7d54)" style="fill: none; stroke: #b0b0b0; stroke-opacity: 0.25; stroke-width: 0.8; stroke-linecap: square"/>
     </g>
     <g id="line2d_2">
      <defs>
       <path id="mc8619c15f2" d="M 0 0 
L 0 3.5 
" style="stroke: #000000; stroke-width: 0.8"/>
      </defs>
      <g>
       <use xlink:href="#mc8619c15f2" x="72.892568" y="389.877656" style="stroke: #000000; stroke-width: 0.8"/>
      </g>
     </g>
     <g id="text_1">
      <!-- 0 -->
      <g transform="translate(69.711318 404.475312) scale(0.1 -0.1)">
       <defs>
        <path id="DejaVuSans-13" d="M 2034 4250 
Q 1547 4250 1301 3770 
Q 1056 3291 1056 2328 
Q 1056 1369 1301 889 
Q 1547 409 2034 409 
Q 2525 409 2770 889 
Q 3016 1369 3016 2328 
Q 3016 3291 2770 3770 
Q 2525 4250 2034 4250 
z
M 2034 4750 
Q 2819 4750 3233 4129 
Q 3647 3509 3647 2328 
Q 3647 1150 3233 529 
Q 2819 -91 2034 -91 
Q 1250 -91 836 529 
Q 422 1150 422 2328 
Q 422 3509 836 4129 
Q 1250 4750 2034 4750 
z
" transform="scale(0.015625)"/>
       </defs>
       <use xlink:href="#DejaVuSans-13"/>
      </g>
     </g>
    </g>
    <g id="xtick_2">
     <g id="line2d_3">
      <path d="M 191.739679 389.877656 
L 191.739679 26.16 
" clip-path="url(#pa1a3ca7d54)" style="fill: none; stroke: #b0b0b0; stroke-opacity: 0.25; stroke-width: 0.8; stroke-linecap: square"/>
     </g>
     <g id="line2d_4">
      <g>
       <use xlink:href="#mc8619c15f2" x="191.739679" y="389.877656" style="stroke: #000000; stroke-width: 0.8"/>
      </g>
     </g>
     <g id="text_2">
      <!-- 50 -->
      <g transform="translate(185.377179 404.475312) scale(0.1 -0.1)">
       <defs>
        <path id="DejaVuSans-18" d="M 691 4666 
L 3169 4666 
L 3169 4134 
L 1269 4134 
L 1269 2991 
Q 1406 3038 1543 3061 
Q 1681 3084 1819 3084 
Q 2600 3084 3056 2656 
Q 3513 2228 3513 1497 
Q 3513 744 3044 326 
Q 2575 -91 1722 -91 
Q 1428 -91 1123 -41 
Q 819 9 494 109 
L 494 744 
Q 775 591 1075 516 
Q 1375 441 1709 441 
Q 2250 441 2565 725 
Q 2881 1009 2881 1497 
Q 2881 1984 2565 2268 
Q 2250 2553 1709 2553 
Q 1456 2553 1204 2497 
Q 953 2441 691 2322 
L 691 4666 
z
" transform="scale(0.015625)"/>
       </defs>
       <use xlink:href="#DejaVuSans-18"/>
       <use xlink:href="#DejaVuSans-13" transform="translate(63.625 0)"/>
      </g>
     </g>
    </g>
    <g id="xtick_3">
     <g id="line2d_5">
      <path d="M 310.58679 389.877656 
L 310.58679 26.16 
" clip-path="url(#pa1a3ca7d54)" style="fill: none; stroke: #b0b0b0; stroke-opacity: 0.25; stroke-width: 0.8; stroke-linecap: square"/>
     </g>
     <g id="line2d_6">
      <g>
       <use xlink:href="#mc8619c15f2" x="310.58679" y="389.877656" style="stroke: #000000; stroke-width: 0.8"/>
      </g>
     </g>
     <g id="text_3">
      <!-- 100 -->
      <g transform="translate(301.04304 404.475312) scale(0.1 -0.1)">
       <defs>
        <path id="DejaVuSans-14" d="M 794 531 
L 1825 531 
L 1825 4091 
L 703 3866 
L 703 4441 
L 1819 4666 
L 2450 4666 
L 2450 531 
L 3481 531 
L 3481 0 
L 794 0 
L 794 531 
z
" transform="scale(0.015625)"/>
       </defs>
       <use xlink:href="#DejaVuSans-14"/>
       <use xlink:href="#DejaVuSans-13" transform="translate(63.625 0)"/>
       <use xlink:href="#DejaVuSans-13" transform="translate(127.25 0)"/>
      </g>
     </g>
    </g>
    <g id="xtick_4">
     <g id="line2d_7">
      <path d="M 429.433901 389.877656 
L 429.433901 26.16 
" clip-path="url(#pa1a3ca7d54)" style="fill: none; stroke: #b0b0b0; stroke-opacity: 0.25; stroke-width: 0.8; stroke-linecap: square"/>
     </g>
     <g id="line2d_8">
      <g>
       <use xlink:href="#mc8619c15f2" x="429.433901" y="389.877656" style="stroke: #000000; stroke-width: 0.8"/>
      </g>
     </g>
     <g id="text_4">
      <!-- 150 -->
      <g transform="translate(419.890151 404.475312) scale(0.1 -0.1)">
       <use xlink:href="#DejaVuSans-14"/>
       <use xlink:href="#DejaVuSans-18" transform="translate(63.625 0)"/>
       <use xlink:href="#DejaVuSans-13" transform="translate(127.25 0)"/>
      </g>
     </g>
    </g>
    <g id="xtick_5">
     <g id="line2d_9">
      <path d="M 548.281012 389.877656 
L 548.281012 26.16 
" clip-path="url(#pa1a3ca7d54)" style="fill: none; stroke: #b0b0b0; stroke-opacity: 0.25; stroke-width: 0.8; stroke-linecap: square"/>
     </g>
     <g id="line2d_10">
      <g>
       <use xlink:href="#mc8619c15f2" x="548.281012" y="389.877656" style="stroke: #000000; stroke-width: 0.8"/>
      </g>
     </g>
     <g id="text_5">
      <!-- 200 -->
      <g transform="translate(538.737262 404.475312) scale(0.1 -0.1)">
       <defs>
        <path id="DejaVuSans-15" d="M 1228 531 
L 3431 531 
L 3431 0 
L 469 0 
L 469 531 
Q 828 903 1448 1529 
Q 2069 2156 2228 2338 
Q 2531 2678 2651 2914 
Q 2772 3150 2772 3378 
Q 2772 3750 2511 3984 
Q 2250 4219 1831 4219 
Q 1534 4219 1204 4116 
Q 875 4013 500 3803 
L 500 4441 
Q 881 4594 1212 4672 
Q 1544 4750 1819 4750 
Q 2544 4750 2975 4387 
Q 3406 4025 3406 3419 
Q 3406 3131 3298 2873 
Q 3191 2616 2906 2266 
Q 2828 2175 2409 1742 
Q 1991 1309 1228 531 
z
" transform="scale(0.015625)"/>
       </defs>
       <use xlink:href="#DejaVuSans-15"/>
       <use xlink:href="#DejaVuSans-13" transform="translate(63.625 0)"/>
       <use xlink:href="#DejaVuSans-13" transform="translate(127.25 0)"/>
      </g>
     </g>
    </g>
    <g id="xtick_6">
     <g id="line2d_11">
      <path d="M 667.128123 389.877656 
L 667.128123 26.16 
" clip-path="url(#pa1a3ca7d54)" style="fill: none; stroke: #b0b0b0; stroke-opacity: 0.25; stroke-width: 0.8; stroke-linecap: square"/>
     </g>
     <g id="line2d_12">
      <g>
       <use xlink:href="#mc8619c15f2" x="667.128123" y="389.877656" style="stroke: #000000; stroke-width: 0.8"/>
      </g>
     </g>
     <g id="text_6">
      <!-- 250 -->
      <g transform="translate(657.584373 404.475312) scale(0.1 -0.1)">
       <use xlink:href="#DejaVuSans-15"/>
       <use xlink:href="#DejaVuSans-18" transform="translate(63.625 0)"/>
       <use xlink:href="#DejaVuSans-13" transform="translate(127.25 0)"/>
      </g>
     </g>
    </g>
    <g id="text_7">
     <!-- Brightness -->
     <g transform="translate(350.508359 418.476094) scale(0.1 -0.1)">
      <defs>
       <path id="DejaVuSans-25" d="M 1259 2228 
L 1259 519 
L 2272 519 
Q 2781 519 3026 730 
Q 3272 941 3272 1375 
Q 3272 1813 3026 2020 
Q 2781 2228 2272 2228 
L 1259 2228 
z
M 1259 4147 
L 1259 2741 
L 2194 2741 
Q 2656 2741 2882 2914 
Q 3109 3088 3109 3444 
Q 3109 3797 2882 3972 
Q 2656 4147 2194 4147 
L 1259 4147 
z
M 628 4666 
L 2241 4666 
Q 2963 4666 3353 4366 
Q 3744 4066 3744 3513 
Q 3744 3084 3544 2831 
Q 3344 2578 2956 2516 
Q 3422 2416 3680 2098 
Q 3938 1781 3938 1306 
Q 3938 681 3513 340 
Q 3088 0 2303 0 
L 628 0 
L 628 4666 
z
" transform="scale(0.015625)"/>
       <path id="DejaVuSans-55" d="M 2631 2963 
Q 2534 3019 2420 3045 
Q 2306 3072 2169 3072 
Q 1681 3072 1420 2755 
Q 1159 2438 1159 1844 
L 1159 0 
L 581 0 
L 581 3500 
L 1159 3500 
L 1159 2956 
Q 1341 3275 1631 3429 
Q 1922 3584 2338 3584 
Q 2397 3584 2469 3576 
Q 2541 3569 2628 3553 
L 2631 2963 
z
" transform="scale(0.015625)"/>
       <path id="DejaVuSans-4c" d="M 603 3500 
L 1178 3500 
L 1178 0 
L 603 0 
L 603 3500 
z
M 603 4863 
L 1178 4863 
L 1178 4134 
L 603 4134 
L 603 4863 
z
" transform="scale(0.015625)"/>
       <path id="DejaVuSans-4a" d="M 2906 1791 
Q 2906 2416 2648 2759 
Q 2391 3103 1925 3103 
Q 1463 3103 1205 2759 
Q 947 2416 947 1791 
Q 947 1169 1205 825 
Q 1463 481 1925 481 
Q 2391 481 2648 825 
Q 2906 1169 2906 1791 
z
M 3481 434 
Q 3481 -459 3084 -895 
Q 2688 -1331 1869 -1331 
Q 1566 -1331 1297 -1286 
Q 1028 -1241 775 -1147 
L 775 -588 
Q 1028 -725 1275 -790 
Q 1522 -856 1778 -856 
Q 2344 -856 2625 -561 
Q 2906 -266 2906 331 
L 2906 616 
Q 2728 306 2450 153 
Q 2172 0 1784 0 
Q 1141 0 747 490 
Q 353 981 353 1791 
Q 353 2603 747 3093 
Q 1141 3584 1784 3584 
Q 2172 3584 2450 3431 
Q 2728 3278 2906 2969 
L 2906 3500 
L 3481 3500 
L 3481 434 
z
" transform="scale(0.015625)"/>
       <path id="DejaVuSans-4b" d="M 3513 2113 
L 3513 0 
L 2938 0 
L 2938 2094 
Q 2938 2591 2744 2837 
Q 2550 3084 2163 3084 
Q 1697 3084 1428 2787 
Q 1159 2491 1159 1978 
L 1159 0 
L 581 0 
L 581 4863 
L 1159 4863 
L 1159 2956 
Q 1366 3272 1645 3428 
Q 1925 3584 2291 3584 
Q 2894 3584 3203 3211 
Q 3513 2838 3513 2113 
z
" transform="scale(0.015625)"/>
       <path id="DejaVuSans-57" d="M 1172 4494 
L 1172 3500 
L 2356 3500 
L 2356 3053 
L 1172 3053 
L 1172 1153 
Q 1172 725 1289 603 
Q 1406 481 1766 481 
L 2356 481 
L 2356 0 
L 1766 0 
Q 1100 0 847 248 
Q 594 497 594 1153 
L 594 3053 
L 172 3053 
L 172 3500 
L 594 3500 
L 594 4494 
L 1172 4494 
z
" transform="scale(0.015625)"/>
       <path id="DejaVuSans-51" d="M 3513 2113 
L 3513 0 
L 2938 0 
L 2938 2094 
Q 2938 2591 2744 2837 
Q 2550 3084 2163 3084 
Q 1697 3084 1428 2787 
Q 1159 2491 1159 1978 
L 1159 0 
L 581 0 
L 581 3500 
L 1159 3500 
L 1159 2956 
Q 1366 3272 1645 3428 
Q 1925 3584 2291 3584 
Q 2894 3584 3203 3211 
Q 3513 2838 3513 2113 
z
" transform="scale(0.015625)"/>
       <path id="DejaVuSans-48" d="M 3597 1894 
L 3597 1613 
L 953 1613 
Q 991 1019 1311 708 
Q 1631 397 2203 397 
Q 2534 397 2845 478 
Q 3156 559 3463 722 
L 3463 178 
Q 3153 47 2828 -22 
Q 2503 -91 2169 -91 
Q 1331 -91 842 396 
Q 353 884 353 1716 
Q 353 2575 817 3079 
Q 1281 3584 2069 3584 
Q 2775 3584 3186 3129 
Q 3597 2675 3597 1894 
z
M 3022 2063 
Q 3016 2534 2758 2815 
Q 2500 3097 2075 3097 
Q 1594 3097 1305 2825 
Q 1016 2553 972 2059 
L 3022 2063 
z
" transform="scale(0.015625)"/>
       <path id="DejaVuSans-56" d="M 2834 3397 
L 2834 2853 
Q 2591 2978 2328 3040 
Q 2066 3103 1784 3103 
Q 1356 3103 1142 2972 
Q 928 2841 928 2578 
Q 928 2378 1081 2264 
Q 1234 2150 1697 2047 
L 1894 2003 
Q 2506 1872 2764 1633 
Q 3022 1394 3022 966 
Q 3022 478 2636 193 
Q 2250 -91 1575 -91 
Q 1294 -91 989 -36 
Q 684 19 347 128 
L 347 722 
Q 666 556 975 473 
Q 1284 391 1588 391 
Q 1994 391 2212 530 
Q 2431 669 2431 922 
Q 2431 1156 2273 1281 
Q 2116 1406 1581 1522 
L 1381 1569 
Q 847 1681 609 1914 
Q 372 2147 372 2553 
Q 372 3047 722 3315 
Q 1072 3584 1716 3584 
Q 2034 3584 2315 3537 
Q 2597 3491 2834 3397 
z
" transform="scale(0.015625)"/>
      </defs>
      <use xlink:href="#DejaVuSans-25"/>
      <use xlink:href="#DejaVuSans-55" transform="translate(68.609375 0)"/>
      <use xlink:href="#DejaVuSans-4c" transform="translate(109.71875 0)"/>
      <use xlink:href="#DejaVuSans-4a" transform="translate(137.5 0)"/>
      <use xlink:href="#DejaVuSans-4b" transform="translate(200.984375 0)"/>
      <use xlink:href="#DejaVuSans-57" transform="translate(264.359375 0)"/>
      <use xlink:href="#DejaVuSans-51" transform="translate(303.5625 0)"/>
      <use xlink:href="#DejaVuSans-48" transform="translate(366.9375 0)"/>
      <use xlink:href="#DejaVuSans-56" transform="translate(428.46875 0)"/>
      <use xlink:href="#DejaVuSans-56" transform="translate(480.5625 0)"/>
     </g>
    </g>
   </g>
   <g id="matplotlib.axis_2">
    <g id="ytick_1">
     <g id="line2d_13">
      <path d="M 45.082344 361.053124 
L 709.2 361.053124 
" clip-path="url(#pa1a3ca7d54)" style="fill: none; stroke: #b0b0b0; stroke-opacity: 0.25; stroke-width: 0.8; stroke-linecap: square"/>
     </g>
     <g id="line2d_14">
      <defs>
       <path id="m45714beb64" d="M 0 0 
L -3.5 0 
" style="stroke: #000000; stroke-width: 0.8"/>
      </defs>
      <g>
       <use xlink:href="#m45714beb64" x="45.082344" y="361.053124" style="stroke: #000000; stroke-width: 0.8"/>
      </g>
     </g>
     <g id="text_8">
      <!-- 2 -->
      <g transform="translate(31.719844 364.851952) scale(0.1 -0.1)">
       <use xlink:href="#DejaVuSans-15"/>
      </g>
     </g>
    </g>
    <g id="ytick_2">
     <g id="line2d_15">
      <path d="M 45.082344 311.885479 
L 709.2 311.885479 
" clip-path="url(#pa1a3ca7d54)" style="fill: none; stroke: #b0b0b0; stroke-opacity: 0.25; stroke-width: 0.8; stroke-linecap: square"/>
     </g>
     <g id="line2d_16">
      <g>
       <use xlink:href="#m45714beb64" x="45.082344" y="311.885479" style="stroke: #000000; stroke-width: 0.8"/>
      </g>
     </g>
     <g id="text_9">
      <!-- 4 -->
      <g transform="translate(31.719844 315.684307) scale(0.1 -0.1)">
       <defs>
        <path id="DejaVuSans-17" d="M 2419 4116 
L 825 1625 
L 2419 1625 
L 2419 4116 
z
M 2253 4666 
L 3047 4666 
L 3047 1625 
L 3713 1625 
L 3713 1100 
L 3047 1100 
L 3047 0 
L 2419 0 
L 2419 1100 
L 313 1100 
L 313 1709 
L 2253 4666 
z
" transform="scale(0.015625)"/>
       </defs>
       <use xlink:href="#DejaVuSans-17"/>
      </g>
     </g>
    </g>
    <g id="ytick_3">
     <g id="line2d_17">
      <path d="M 45.082344 262.717834 
L 709.2 262.717834 
" clip-path="url(#pa1a3ca7d54)" style="fill: none; stroke: #b0b0b0; stroke-opacity: 0.25; stroke-width: 0.8; stroke-linecap: square"/>
     </g>
     <g id="line2d_18">
      <g>
       <use xlink:href="#m45714beb64" x="45.082344" y="262.717834" style="stroke: #000000; stroke-width: 0.8"/>
      </g>
     </g>
     <g id="text_10">
      <!-- 6 -->
      <g transform="translate(31.719844 266.516662) scale(0.1 -0.1)">
       <defs>
        <path id="DejaVuSans-19" d="M 2113 2584 
Q 1688 2584 1439 2293 
Q 1191 2003 1191 1497 
Q 1191 994 1439 701 
Q 1688 409 2113 409 
Q 2538 409 2786 701 
Q 3034 994 3034 1497 
Q 3034 2003 2786 2293 
Q 2538 2584 2113 2584 
z
M 3366 4563 
L 3366 3988 
Q 3128 4100 2886 4159 
Q 2644 4219 2406 4219 
Q 1781 4219 1451 3797 
Q 1122 3375 1075 2522 
Q 1259 2794 1537 2939 
Q 1816 3084 2150 3084 
Q 2853 3084 3261 2657 
Q 3669 2231 3669 1497 
Q 3669 778 3244 343 
Q 2819 -91 2113 -91 
Q 1303 -91 875 529 
Q 447 1150 447 2328 
Q 447 3434 972 4092 
Q 1497 4750 2381 4750 
Q 2619 4750 2861 4703 
Q 3103 4656 3366 4563 
z
" transform="scale(0.015625)"/>
       </defs>
       <use xlink:href="#DejaVuSans-19"/>
      </g>
     </g>
    </g>
    <g id="ytick_4">
     <g id="line2d_19">
      <path d="M 45.082344 213.550188 
L 709.2 213.550188 
" clip-path="url(#pa1a3ca7d54)" style="fill: none; stroke: #b0b0b0; stroke-opacity: 0.25; stroke-width: 0.8; stroke-linecap: square"/>
     </g>
     <g id="line2d_20">
      <g>
       <use xlink:href="#m45714beb64" x="45.082344" y="213.550188" style="stroke: #000000; stroke-width: 0.8"/>
      </g>
     </g>
     <g id="text_11">
      <!-- 8 -->
      <g transform="translate(31.719844 217.349016) scale(0.1 -0.1)">
       <defs>
        <path id="DejaVuSans-1b" d="M 2034 2216 
Q 1584 2216 1326 1975 
Q 1069 1734 1069 1313 
Q 1069 891 1326 650 
Q 1584 409 2034 409 
Q 2484 409 2743 651 
Q 3003 894 3003 1313 
Q 3003 1734 2745 1975 
Q 2488 2216 2034 2216 
z
M 1403 2484 
Q 997 2584 770 2862 
Q 544 3141 544 3541 
Q 544 4100 942 4425 
Q 1341 4750 2034 4750 
Q 2731 4750 3128 4425 
Q 3525 4100 3525 3541 
Q 3525 3141 3298 2862 
Q 3072 2584 2669 2484 
Q 3125 2378 3379 2068 
Q 3634 1759 3634 1313 
Q 3634 634 3220 271 
Q 2806 -91 2034 -91 
Q 1263 -91 848 271 
Q 434 634 434 1313 
Q 434 1759 690 2068 
Q 947 2378 1403 2484 
z
M 1172 3481 
Q 1172 3119 1398 2916 
Q 1625 2713 2034 2713 
Q 2441 2713 2670 2916 
Q 2900 3119 2900 3481 
Q 2900 3844 2670 4047 
Q 2441 4250 2034 4250 
Q 1625 4250 1398 4047 
Q 1172 3844 1172 3481 
z
" transform="scale(0.015625)"/>
       </defs>
       <use xlink:href="#DejaVuSans-1b"/>
      </g>
     </g>
    </g>
    <g id="ytick_5">
     <g id="line2d_21">
      <path d="M 45.082344 164.382543 
L 709.2 164.382543 
" clip-path="url(#pa1a3ca7d54)" style="fill: none; stroke: #b0b0b0; stroke-opacity: 0.25; stroke-width: 0.8; stroke-linecap: square"/>
     </g>
     <g id="line2d_22">
      <g>
       <use xlink:href="#m45714beb64" x="45.082344" y="164.382543" style="stroke: #000000; stroke-width: 0.8"/>
      </g>
     </g>
     <g id="text_12">
      <!-- 10 -->
      <g transform="translate(25.357344 168.181371) scale(0.1 -0.1)">
       <use xlink:href="#DejaVuSans-14"/>
       <use xlink:href="#DejaVuSans-13" transform="translate(63.625 0)"/>
      </g>
     </g>
    </g>
    <g id="ytick_6">
     <g id="line2d_23">
      <path d="M 45.082344 115.214898 
L 709.2 115.214898 
" clip-path="url(#pa1a3ca7d54)" style="fill: none; stroke: #b0b0b0; stroke-opacity: 0.25; stroke-width: 0.8; stroke-linecap: square"/>
     </g>
     <g id="line2d_24">
      <g>
       <use xlink:href="#m45714beb64" x="45.082344" y="115.214898" style="stroke: #000000; stroke-width: 0.8"/>
      </g>
     </g>
     <g id="text_13">
      <!-- 12 -->
      <g transform="translate(25.357344 119.013726) scale(0.1 -0.1)">
       <use xlink:href="#DejaVuSans-14"/>
       <use xlink:href="#DejaVuSans-15" transform="translate(63.625 0)"/>
      </g>
     </g>
    </g>
    <g id="ytick_7">
     <g id="line2d_25">
      <path d="M 45.082344 66.047252 
L 709.2 66.047252 
" clip-path="url(#pa1a3ca7d54)" style="fill: none; stroke: #b0b0b0; stroke-opacity: 0.25; stroke-width: 0.8; stroke-linecap: square"/>
     </g>
     <g id="line2d_26">
      <g>
       <use xlink:href="#m45714beb64" x="45.082344" y="66.047252" style="stroke: #000000; stroke-width: 0.8"/>
      </g>
     </g>
     <g id="text_14">
      <!-- 14 -->
      <g transform="translate(25.357344 69.84608) scale(0.1 -0.1)">
       <use xlink:href="#DejaVuSans-14"/>
       <use xlink:href="#DejaVuSans-17" transform="translate(63.625 0)"/>
      </g>
     </g>
    </g>
    <g id="text_15">
     <!-- Power (W) -->
     <g transform="translate(18.955 233.570391) rotate(-90) scale(0.1 -0.1)">
      <defs>
       <path id="DejaVuSans-33" d="M 1259 4147 
L 1259 2394 
L 2053 2394 
Q 2494 2394 2734 2622 
Q 2975 2850 2975 3272 
Q 2975 3691 2734 3919 
Q 2494 4147 2053 4147 
L 1259 4147 
z
M 628 4666 
L 2053 4666 
Q 2838 4666 3239 4311 
Q 3641 3956 3641 3272 
Q 3641 2581 3239 2228 
Q 2838 1875 2053 1875 
L 1259 1875 
L 1259 0 
L 628 0 
L 628 4666 
z
" transform="scale(0.015625)"/>
       <path id="DejaVuSans-52" d="M 1959 3097 
Q 1497 3097 1228 2736 
Q 959 2375 959 1747 
Q 959 1119 1226 758 
Q 1494 397 1959 397 
Q 2419 397 2687 759 
Q 2956 1122 2956 1747 
Q 2956 2369 2687 2733 
Q 2419 3097 1959 3097 
z
M 1959 3584 
Q 2709 3584 3137 3096 
Q 3566 2609 3566 1747 
Q 3566 888 3137 398 
Q 2709 -91 1959 -91 
Q 1206 -91 779 398 
Q 353 888 353 1747 
Q 353 2609 779 3096 
Q 1206 3584 1959 3584 
z
" transform="scale(0.015625)"/>
       <path id="DejaVuSans-5a" d="M 269 3500 
L 844 3500 
L 1563 769 
L 2278 3500 
L 2956 3500 
L 3675 769 
L 4391 3500 
L 4966 3500 
L 4050 0 
L 3372 0 
L 2619 2869 
L 1863 0 
L 1184 0 
L 269 3500 
z
" transform="scale(0.015625)"/>
       <path id="DejaVuSans-3" transform="scale(0.015625)"/>
       <path id="DejaVuSans-b" d="M 1984 4856 
Q 1566 4138 1362 3434 
Q 1159 2731 1159 2009 
Q 1159 1288 1364 580 
Q 1569 -128 1984 -844 
L 1484 -844 
Q 1016 -109 783 600 
Q 550 1309 550 2009 
Q 550 2706 781 3412 
Q 1013 4119 1484 4856 
L 1984 4856 
z
" transform="scale(0.015625)"/>
       <path id="DejaVuSans-3a" d="M 213 4666 
L 850 4666 
L 1831 722 
L 2809 4666 
L 3519 4666 
L 4500 722 
L 5478 4666 
L 6119 4666 
L 4947 0 
L 4153 0 
L 3169 4050 
L 2175 0 
L 1381 0 
L 213 4666 
z
" transform="scale(0.015625)"/>
       <path id="DejaVuSans-c" d="M 513 4856 
L 1013 4856 
Q 1481 4119 1714 3412 
Q 1947 2706 1947 2009 
Q 1947 1309 1714 600 
Q 1481 -109 1013 -844 
L 513 -844 
Q 928 -128 1133 580 
Q 1338 1288 1338 2009 
Q 1338 2731 1133 3434 
Q 928 4138 513 4856 
z
" transform="scale(0.015625)"/>
      </defs>
      <use xlink:href="#DejaVuSans-33"/>
      <use xlink:href="#DejaVuSans-52" transform="translate(56.734375 0)"/>
      <use xlink:href="#DejaVuSans-5a" transform="translate(117.921875 0)"/>
      <use xlink:href="#DejaVuSans-48" transform="translate(199.703125 0)"/>
      <use xlink:href="#DejaVuSans-55" transform="translate(261.234375 0)"/>
      <use xlink:href="#DejaVuSans-3" transform="translate(302.34375 0)"/>
      <use xlink:href="#DejaVuSans-b" transform="translate(334.125 0)"/>
      <use xlink:href="#DejaVuSans-3a" transform="translate(373.140625 0)"/>
      <use xlink:href="#DejaVuSans-c" transform="translate(472.015625 0)"/>
     </g>
    </g>
   </g>
   <g id="patch_3">
    <path d="M 45.082344 389.877656 
L 45.082344 26.16 
" style="fill: none; stroke: #000000; stroke-width: 0.8; stroke-linejoin: miter; stroke-linecap: square"/>
   </g>
   <g id="patch_4">
    <path d="M 709.2 389.877656 
L 709.2 26.16 
" style="fill: none; stroke: #000000; stroke-width: 0.8; stroke-linejoin: miter; stroke-linecap: square"/>
   </g>
   <g id="patch_5">
    <path d="M 45.082344 389.877656 
L 709.2 389.877656 
" style="fill: none; stroke: #000000; stroke-width: 0.8; stroke-linejoin: miter; stroke-linecap: square"/>
   </g>
   <g id="patch_6">
    <path d="M 45.082344 26.16 
L 709.2 26.16 
" style="fill: none; stroke: #000000; stroke-width: 0.8; stroke-linejoin: miter; stroke-linecap: square"/>
   </g>
   <g id="text_16">
    <!-- Brightness -->
    <g transform="translate(345.181797 20.16) scale(0.12 -0.12)">
     <use xlink:href="#DejaVuSans-25"/>
     <use xlink:href="#DejaVuSans-55" transform="translate(68.609375 0)"/>
     <use xlink:href="#DejaVuSans-4c" transform="translate(109.71875 0)"/>
     <use xlink:href="#DejaVuSans-4a" transform="translate(137.5 0)"/>
     <use xlink:href="#DejaVuSans-4b" transform="translate(200.984375 0)"/>
     <use xlink:href="#DejaVuSans-57" transform="translate(264.359375 0)"/>
     <use xlink:href="#DejaVuSans-51" transform="translate(303.5625 0)"/>
     <use xlink:href="#DejaVuSans-48" transform="translate(366.9375 0)"/>
     <use xlink:href="#DejaVuSans-56" transform="translate(428.46875 0)"/>
     <use xlink:href="#DejaVuSans-56" transform="translate(480.5625 0)"/>
    </g>
   </g>
  </g>
 </g>
 <defs>
  <clipPath id="pa1a3ca7d54">
   <rect x="45.082344" y="26.16" width="664.117656" height="363.717656"/>
  </clipPath>
 </defs>
</svg>
