<?xml version="1.0" encoding="UTF-8"?>
<svg id="Layer_1" data-name="Layer 1" xmlns="http://www.w3.org/2000/svg" viewBox="0 0 1855.4 2133.94">
  <defs>
    <style>
      .cls-1 {
        fill: #000;
        font-family: Montserrat-Bold, Montserrat;
        font-size: 40.05px;
        font-weight: 700;
      }

      .cls-2 {
        letter-spacing: -.02em;
      }

      .cls-3 {
        letter-spacing: 0em;
      }

      .cls-4 {
        fill: #5488e8;
      }

      .cls-4, .cls-5 {
        stroke-width: 0px;
      }

      .cls-6 {
        letter-spacing: -.01em;
      }

      .cls-7 {
        letter-spacing: -.01em;
      }

      .cls-8 {
        letter-spacing: -.02em;
      }

      .cls-5 {
        fill: #fff;
      }
    </style>
  </defs>
  <rect class="cls-4" x="855.4" y="1133.94" width="1000" height="1000"/>
  <text class="cls-1" transform="translate(299.59 34.05)"><tspan x="0" y="0">P</tspan><tspan class="cls-2" x="29.32" y="0">O</tspan><tspan class="cls-8" x="62.2" y="0">W</tspan><tspan x="108.19" y="0">ER</tspan><tspan class="cls-7" x="164.5" y="0">C</tspan><tspan x="193.3" y="0">A</tspan><tspan class="cls-6" x="223.98" y="0">L</tspan><tspan class="cls-3" x="247.7" y="0">C</tspan></text>
  <g>
    <path class="cls-4" d="M52.45,1614.02c-4.14,5.38-7.62,10.66-10.53,15.83-1.18,2.1-2.27,4.18-3.27,6.23-7.94-10.48-12.59-23.58-12.39-37.79.47-33.57,28.31-60.71,61.88-60.35,14,.15,26.88,5,37.12,13.05-2.76.32-5.4.67-7.91,1.04-12.05,1.76-21.24,3.96-28.2,6.17-16.38,5.22-20.43,10.55-20.43,10.55l15.4,13.77c-13.42,10.63-23.75,21.23-31.67,31.51ZM208.02,1556.62c-31.17-3.43-55.29-.31-72.74,4.29-.28.07-.55.15-.82.22-.97.26-1.93.52-2.85.79-8.41,2.44-15.09,5.18-20.1,7.54-6.98,3.28-10.71,5.84-11.32,5.84-.84,0,3.19,3.67,8.06,7.86,2.31,1.99,4.81,4.09,7.08,5.98,4.12,3.43,7.47,6.16,7.47,6.16-5.35,1.41-10.44,3.21-15.28,5.28-19.92,8.5-35.5,21.77-46.29,33.27-4.74,5.06-8.56,9.76-11.43,13.57-4.16,5.54-6.31,9.18-6.31,9.18l21.73-.39c1.14.44,2.29.86,3.46,1.24,5.93,1.91,12.25,2.95,18.81,2.95,0,0,10.23,0,22.53-5h0c.06-.02.11-.05.17-.08,1.51-.62,3.05-1.31,4.6-2.09,53.12-25.86,28.91-81.21,28.91-81.21,16.06-8.69,64.32-15.4,64.32-15.4ZM166.36,1599.17c0,43.39-35.3,78.69-78.69,78.69s-78.69-35.3-78.69-78.69,35.3-78.69,78.69-78.69c23.77,0,45.09,10.61,59.53,27.32,3.19-.32,6.82-.63,10.84-.85-15.99-21.5-41.58-35.45-70.38-35.45-48.34,0-87.67,39.33-87.67,87.67s39.33,87.67,87.67,87.67,87.67-39.33,87.67-87.67c0-6.34-.69-12.53-1.98-18.49-3.32.9-6.22,1.8-8.62,2.6,1.06,5.14,1.62,10.45,1.62,15.9Z"/>
    <path class="cls-4" d="M257.26,1584.37c.08-.47.12-.97.12-1.5,0-1.3-.28-2.59-.82-3.81-.55-1.22-1.3-2.29-2.25-3.19-.57-.47-1.13-.87-1.67-1.21-.55-.34-1.22-.61-1.98-.8-.75-.18-1.61-.31-2.56-.39-.94-.08-2.07-.12-3.34-.12h-40.34l.13.35c.2.54.32,1,.37,1.36.05.37.07.79.07,1.23,0,.49-.05,1.19-.15,2.07-.1.88-.2,1.52-.3,1.91l-9.15,35.51c-.3,1.11-.58,2.07-.84,2.85-.26.79-.51,1.5-.76,2.12-.25.62-.55,1.23-.9,1.79-.35.57-.74,1.18-1.21,1.86l-.28.41h23.71l-.17-.37c-.24-.53-.39-.97-.44-1.3-.05-.34-.07-.76-.07-1.26,0-.55.05-1.23.15-2.03.1-.79.22-1.44.37-1.94l2.85-11.1h20.46c1.68,0,3.08-.03,4.17-.08,1.1-.05,2.06-.16,2.86-.31.81-.16,1.53-.4,2.13-.71.6-.31,1.24-.73,1.9-1.24.67-.47,1.27-.98,1.76-1.53.49-.55.94-1.17,1.33-1.84.39-.67.75-1.48,1.09-2.41.33-.93.66-2.02.96-3.24l2.29-9.01c.26-.94.42-1.62.5-2.09ZM236.81,1586.05l-1.83,7.29c-.25.99-.51,1.79-.78,2.38-.26.57-.61,1.02-1.03,1.35-.42.33-.95.54-1.59.63-.67.1-1.54.15-2.59.15h-8.81l3.98-15.49h9.25c1.42,0,2.39.16,2.91.49.48.31.72.88.72,1.75,0,.48-.07.96-.22,1.45Z"/>
    <path class="cls-4" d="M314.03,1575.94c-.57-.47-1.17-.87-1.8-1.21-.62-.34-1.34-.62-2.12-.82-.78-.21-1.68-.35-2.68-.43-.99-.08-2.17-.12-3.49-.12h-24.71c-2.54,0-4.78.19-6.65.58-1.88.39-3.5,1.04-4.82,1.95-1.32.91-2.44,2.1-3.32,3.56-.87,1.44-1.58,3.21-2.09,5.26l-6.48,25.04c-.25.81-.44,1.46-.54,1.93-.1.46-.19.84-.27,1.14-.08.32-.12.63-.12.9v.99c0,3.07,1.11,5.65,3.28,7.67.52.53,1.08.95,1.66,1.27.58.31,1.24.57,1.97.75.72.18,1.61.3,2.64.35,1.01.05,2.3.08,3.83.08h26.01c2.45,0,4.58-.19,6.35-.58,1.78-.39,3.32-1.03,4.59-1.91,1.27-.88,2.32-2.06,3.13-3.49.79-1.41,1.48-3.19,2.05-5.29l6.48-25.13c.46-1.84.69-3.36.69-4.49,0-1.56-.32-3.03-.94-4.39-.62-1.35-1.51-2.56-2.66-3.61ZM297.59,1585.66l-.38,1.3-6.41,24.66c-.25,1.05-.48,1.88-.68,2.45-.19.54-.43.96-.7,1.23-.26.26-.6.41-1.02.46-.47.05-1.12.07-1.92.07h-7.4c-.85,0-1.47-.03-1.83-.07-.37-.05-.73-.12-1.02-.2-.37-.18-.67-.43-.9-.73-.22-.28-.33-.57-.33-.87,0-.18.02-.36.07-.55.05-.2.2-.84.46-1.9l6.33-24.5c.25-1,.51-1.81.79-2.43.26-.6.59-1.07.96-1.39.37-.32.83-.55,1.37-.66.57-.12,1.31-.18,2.19-.18h7.17c3.48,0,3.48,1.41,3.48,1.87,0,.38-.07.87-.22,1.45Z"/>
    <path class="cls-4" d="M402.16,1577.43c.75-1.11,1.72-2.3,2.87-3.55l.4-.44h-13.36v1.79c0,.69-.11,1.47-.34,2.34-.22.86-.53,1.62-.93,2.27l-14.13,25.69.59-32.08h-19.41l-17.78,32.52.58-24.47c.1-3.09.75-5.67,1.95-7.65l.24-.4h-23.31l.19.38c.94,1.89,1.42,4.34,1.42,7.28v1.83l-.92,41.91h19.49l17.71-32.15-.74,32.15h19.57l23.72-43.76c.7-1.3,1.44-2.53,2.2-3.64Z"/>
    <path class="cls-4" d="M615.25,1614.11c-2.29,1.15-4.87,1.73-7.66,1.73h-12.96c-1.16,0-1.88-.01-2.15-.04-.27-.02-.6-.09-.98-.18-1.06-.32-1.57-.94-1.57-1.88,0-.24.02-.51.07-.79.05-.29.17-.76.38-1.42l6.56-25.57c.2-.79.42-1.44.67-1.92.23-.46.55-.83.94-1.08.4-.26.92-.42,1.56-.49.67-.07,1.6-.11,2.75-.11h13.42c.76,0,1.41.01,1.97.04.54.03,1.05.1,1.51.22.47.12.96.29,1.46.49.51.2,1.11.46,1.83.76l.33.14,1.14-10.63h-29.03c-2.7-.1-5.09.02-7.11.35-2.03.34-3.8.94-5.24,1.79-1.45.86-2.66,2-3.59,3.4-.93,1.4-1.66,3.12-2.17,5.12l-6.94,26.81c-.36,1.35-.59,2.29-.69,2.89-.1.59-.16,1.21-.16,1.84,0,1.72.46,3.34,1.37,4.8.91,1.46,2.14,2.57,3.65,3.3.51.26.99.46,1.41.59.42.13.96.24,1.65.31.67.08,1.59.13,2.73.15,1.14.03,2.71.06,4.7.11h26.34l4.44-11.02-.62.31Z"/>
    <path class="cls-4" d="M730.88,1615.27c-.71.17-1.6.3-2.63.37-1.04.08-2.3.13-3.76.15-1.46.03-3.31.04-5.64.04h-12.32l8.61-33.45c.31-1.14.59-2.07.84-2.85.25-.78.51-1.49.76-2.12.25-.62.55-1.2.89-1.75.35-.56.76-1.19,1.22-1.91l.26-.4h-23.65l.13.35c.2.54.32,1,.37,1.36.05.37.07.78.07,1.22,0,.49-.05,1.19-.15,2.07-.1.88-.2,1.52-.3,1.91l-9.15,35.46c-.3,1.1-.58,2.07-.84,2.87-.25.78-.5,1.5-.76,2.14-.25.63-.55,1.24-.9,1.81-.34.57-.74,1.19-1.21,1.87l-.19.28-.32-.32c-.45-.45-.84-.89-1.16-1.31-.31-.41-.6-.91-.84-1.5-.25-.59-.5-1.32-.75-2.15-.25-.82-.53-1.9-.83-3.22l-8.85-42.55-.04-.21h-28.69l1.39.51c1.09.4,1.88.77,2.34,1.11.43.32.98.85,1.62,1.57l-27.34,40.63c-1.31,1.81-2.43,3.23-3.34,4.21-.91.99-1.93,1.97-3.03,2.92l-.53.46h14.72l-.12-.35c-.12-.36-.14-.53-.14-.6v-.61c0-1.01.55-2.29,1.63-3.82l5.64-8.35h23.52l1.02,5.05c.4,2.01.61,3.53.61,4.52,0,.58-.09,1.14-.25,1.67-.17.55-.49,1.25-.93,2.09l-.2.38h72.07l4.07-10.35-.51.15c-.86.25-1.66.47-2.39.64ZM639.5,1602.72l12.42-18.59,3.78,18.59h-16.2Z"/>
    <path class="cls-4" d="M760.97,1573.36c-2.7-.1-5.09.02-7.11.35-2.03.34-3.8.94-5.24,1.79-1.45.86-2.66,2-3.59,3.4-.93,1.4-1.66,3.12-2.17,5.12l-6.94,26.81c-.36,1.35-.59,2.29-.69,2.89-.1.59-.16,1.21-.16,1.84,0,1.72.46,3.34,1.37,4.8.91,1.46,2.14,2.57,3.65,3.3.51.26.99.46,1.41.59.42.13.96.24,1.65.31.67.08,1.59.13,2.73.15,1.14.03,2.71.06,4.7.11h26.34l4.44-11.02-.62.31c-2.29,1.15-4.87,1.73-7.66,1.73h-12.96c-1.16,0-1.88-.01-2.15-.04-.27-.02-.6-.09-.98-.18-1.06-.32-1.57-.94-1.57-1.88,0-.24.02-.51.07-.79.05-.29.17-.76.38-1.42l6.56-25.57c.2-.79.42-1.44.67-1.92.23-.46.55-.83.94-1.08.4-.26.92-.42,1.56-.49.67-.07,1.6-.11,2.75-.11h13.42c.76,0,1.41.01,1.97.04.54.03,1.05.1,1.51.22.47.12.96.29,1.46.49.51.2,1.11.46,1.83.76l.33.14,1.14-10.63h-29.03Z"/>
    <path class="cls-4" d="M442.04,1614.71c-1,.4-1.89.69-2.67.86-.76.17-1.66.26-2.65.26h-19.64l3.3-12.67h11.33l10.01-9c-.14,0-.28.02-.42.02h-18.65l3.07-11.83h18.56c1.45,0,2.58.08,3.34.22.76.15,1.62.47,2.56.97l.33.18,1.3-10.35h-45.82l.13.35c.2.54.32,1,.37,1.36.05.37.07.79.07,1.23,0,.49-.05,1.19-.15,2.07-.1.88-.2,1.53-.3,1.91l-9.15,35.51c-.3,1.11-.58,2.07-.84,2.85-.25.79-.51,1.5-.76,2.12-.25.62-.55,1.23-.9,1.79-.34.56-.74,1.17-1.21,1.86l-.28.41h45.52l4.1-10.34-.56.23Z"/>
    <path class="cls-4" d="M502.75,1597.75c.21-.68.46-1.61.77-2.76l2.21-8.62c.11-.32.21-.89.32-1.73.1-.83.15-1.4.15-1.71,0-1.36-.41-2.78-1.22-4.22-.8-1.43-1.84-2.6-3.1-3.5-.57-.36-1.1-.68-1.58-.93-.51-.27-1.11-.46-1.8-.56-.66-.1-1.48-.18-2.43-.23-.96-.05-2.19-.08-3.64-.08h-38.35l.13.35c.2.54.32,1,.37,1.36.05.37.07.79.07,1.23,0,.49-.05,1.19-.15,2.07-.1.88-.2,1.53-.3,1.91l-7.56,29.41-1.59,6.18c-.3,1.11-.58,2.07-.84,2.85-.25.78-.51,1.5-.76,2.12-.25.62-.55,1.21-.89,1.75-.34.54-.74,1.14-1.21,1.82l-.28.41h23.71l-.17-.37c-.24-.53-.39-.97-.44-1.3-.05-.34-.07-.76-.07-1.26s.05-1.15.15-1.95c.1-.8.23-1.48.38-2.03l3.84-14.9h4.61l4.2,21.81h22.33l-.51-.46c-.5-.45-.91-.88-1.23-1.27-.32-.39-.59-.79-.81-1.18-.22-.39-.4-.84-.55-1.35-.15-.52-.3-1.15-.45-1.85l-3.13-15.65c.18.02.35.03.51.03h.69c1.24,0,2.47-.18,3.66-.55,1.2-.37,2.18-.87,2.91-1.5.31-.26.58-.52.79-.75.22-.24.43-.57.64-.97.21-.39.42-.94.63-1.61ZM485.78,1585.72l-1.3,5.12c-.15.68-.32,1.23-.51,1.62-.18.37-.43.64-.75.85-.32.21-.74.35-1.23.42-.52.07-1.19.11-1.98.11h-9.12l2.92-11.45h9.56c1.01,0,1.74.13,2.15.38.38.23.56.64.56,1.26,0,.53-.1,1.09-.3,1.69Z"/>
    <polygon class="cls-4" points="541.2 1597 557.69 1567.94 516.2 1605.28 534.91 1608.55 517.79 1637.5 560.45 1600.37 541.2 1597"/>
  </g>
  <g>
    <path class="cls-5" d="M1012.85,1648.8c-4.14,5.38-7.62,10.66-10.53,15.83-1.18,2.1-2.27,4.18-3.27,6.23-7.94-10.48-12.59-23.58-12.39-37.79.47-33.57,28.31-60.71,61.88-60.35,14,.15,26.88,5,37.12,13.05-2.76.32-5.4.67-7.91,1.04-12.05,1.76-21.24,3.96-28.2,6.17-16.38,5.22-20.43,10.55-20.43,10.55l15.4,13.77c-13.42,10.63-23.75,21.23-31.67,31.51ZM1168.41,1591.39c-31.17-3.43-55.29-.31-72.74,4.29-.28.07-.55.15-.82.22-.97.26-1.93.52-2.85.79-8.41,2.44-15.09,5.18-20.1,7.54-6.98,3.28-10.71,5.84-11.32,5.84-.84,0,3.19,3.67,8.06,7.86,2.31,1.99,4.81,4.09,7.08,5.98,4.12,3.43,7.47,6.16,7.47,6.16-5.35,1.41-10.44,3.21-15.28,5.28-19.92,8.5-35.5,21.77-46.29,33.27-4.74,5.06-8.56,9.76-11.43,13.57-4.16,5.54-6.31,9.18-6.31,9.18l21.73-.39c1.14.44,2.29.86,3.46,1.24,5.93,1.91,12.25,2.95,18.81,2.95,0,0,10.23,0,22.53-5h0c.06-.02.11-.05.17-.08,1.51-.62,3.05-1.31,4.6-2.09,53.12-25.86,28.91-81.21,28.91-81.21,16.06-8.69,64.32-15.4,64.32-15.4ZM1126.76,1633.94c0,43.39-35.3,78.69-78.69,78.69s-78.69-35.3-78.69-78.69,35.3-78.69,78.69-78.69c23.77,0,45.09,10.61,59.53,27.32,3.19-.32,6.82-.63,10.84-.85-15.99-21.5-41.58-35.45-70.38-35.45-48.34,0-87.67,39.33-87.67,87.67s39.33,87.67,87.67,87.67,87.67-39.33,87.67-87.67c0-6.34-.69-12.53-1.98-18.49-3.32.9-6.22,1.8-8.62,2.6,1.06,5.14,1.62,10.45,1.62,15.9Z"/>
    <path class="cls-5" d="M1217.66,1619.14c.08-.47.12-.97.12-1.5,0-1.3-.28-2.59-.82-3.81-.55-1.22-1.3-2.29-2.25-3.19-.57-.47-1.13-.87-1.67-1.21-.55-.34-1.22-.61-1.98-.8-.75-.18-1.61-.31-2.56-.39-.94-.08-2.07-.12-3.34-.12h-40.34l.13.35c.2.54.32,1,.37,1.36.05.37.07.79.07,1.23,0,.49-.05,1.19-.15,2.07-.1.88-.2,1.52-.3,1.91l-9.15,35.51c-.3,1.11-.58,2.07-.84,2.85-.26.79-.51,1.5-.76,2.12-.25.62-.55,1.23-.9,1.79-.35.57-.74,1.18-1.21,1.86l-.28.41h23.71l-.17-.37c-.24-.53-.39-.97-.44-1.3-.05-.34-.07-.76-.07-1.26,0-.55.05-1.23.15-2.03.1-.79.22-1.44.37-1.94l2.85-11.1h20.46c1.68,0,3.08-.03,4.17-.08,1.1-.05,2.06-.16,2.86-.31.81-.16,1.53-.4,2.13-.71.6-.31,1.24-.73,1.9-1.24.67-.47,1.27-.98,1.76-1.53.49-.55.94-1.17,1.33-1.84.39-.67.75-1.48,1.09-2.41.33-.93.66-2.02.96-3.24l2.29-9.01c.26-.94.42-1.62.5-2.09ZM1197.2,1620.82l-1.83,7.29c-.25.99-.51,1.79-.78,2.38-.26.57-.61,1.02-1.03,1.35-.42.33-.95.54-1.59.63-.67.1-1.54.15-2.59.15h-8.81l3.98-15.49h9.25c1.42,0,2.39.16,2.91.49.48.31.72.88.72,1.75,0,.48-.07.96-.22,1.45Z"/>
    <path class="cls-5" d="M1274.42,1610.72c-.57-.47-1.17-.87-1.8-1.21-.62-.34-1.34-.62-2.12-.82-.78-.21-1.68-.35-2.68-.43-.99-.08-2.17-.12-3.49-.12h-24.71c-2.54,0-4.78.19-6.65.58-1.88.39-3.5,1.04-4.82,1.95-1.32.91-2.44,2.1-3.32,3.56-.87,1.44-1.58,3.21-2.09,5.26l-6.48,25.04c-.25.81-.44,1.46-.54,1.93-.1.46-.19.84-.27,1.14-.08.32-.12.63-.12.9v.99c0,3.07,1.11,5.65,3.28,7.67.52.53,1.08.95,1.66,1.27.58.31,1.24.57,1.97.75.72.18,1.61.3,2.64.35,1.01.05,2.3.08,3.83.08h26.01c2.45,0,4.58-.19,6.35-.58,1.78-.39,3.32-1.03,4.59-1.91,1.27-.88,2.32-2.06,3.13-3.49.79-1.41,1.48-3.19,2.05-5.29l6.48-25.13c.46-1.84.69-3.36.69-4.49,0-1.56-.32-3.03-.94-4.39-.62-1.35-1.51-2.56-2.66-3.61ZM1257.99,1620.44l-.38,1.3-6.41,24.66c-.25,1.05-.48,1.88-.68,2.45-.19.54-.43.96-.7,1.23-.26.26-.6.41-1.02.46-.47.05-1.12.07-1.92.07h-7.4c-.85,0-1.47-.03-1.83-.07-.37-.05-.73-.12-1.02-.2-.37-.18-.67-.43-.9-.73-.22-.28-.33-.57-.33-.87,0-.18.02-.36.07-.55.05-.2.2-.84.46-1.9l6.33-24.5c.25-1,.51-1.81.79-2.43.26-.6.59-1.07.96-1.39.37-.32.83-.55,1.37-.66.57-.12,1.31-.18,2.19-.18h7.17c3.48,0,3.48,1.41,3.48,1.87,0,.38-.07.87-.22,1.45Z"/>
    <path class="cls-5" d="M1362.56,1612.21c.75-1.11,1.72-2.3,2.87-3.55l.4-.44h-13.36v1.79c0,.69-.11,1.47-.34,2.34-.22.86-.53,1.62-.93,2.27l-14.13,25.69.59-32.08h-19.41l-17.78,32.52.58-24.47c.1-3.09.75-5.67,1.95-7.65l.24-.4h-23.31l.19.38c.94,1.89,1.42,4.34,1.42,7.28v1.83l-.92,41.91h19.49l17.71-32.15-.74,32.15h19.57l23.72-43.76c.7-1.3,1.44-2.53,2.2-3.64Z"/>
    <path class="cls-5" d="M1575.65,1648.89c-2.29,1.15-4.87,1.73-7.66,1.73h-12.96c-1.16,0-1.88-.01-2.15-.04-.27-.02-.6-.09-.98-.18-1.06-.32-1.57-.94-1.57-1.88,0-.24.02-.51.07-.79.05-.29.17-.76.38-1.42l6.56-25.57c.2-.79.42-1.44.67-1.92.23-.46.55-.83.94-1.08.4-.26.92-.42,1.56-.49.67-.07,1.6-.11,2.75-.11h13.42c.76,0,1.41.01,1.97.04.54.03,1.05.1,1.51.22.47.12.96.29,1.46.49.51.2,1.11.46,1.83.76l.33.14,1.14-10.63h-29.03c-2.7-.1-5.09.02-7.11.35-2.03.34-3.8.94-5.24,1.79-1.45.86-2.66,2-3.59,3.4-.93,1.4-1.66,3.12-2.17,5.12l-6.94,26.81c-.36,1.35-.59,2.29-.69,2.89-.1.59-.16,1.21-.16,1.84,0,1.72.46,3.34,1.37,4.8.91,1.46,2.14,2.57,3.65,3.3.51.26.99.46,1.41.59.42.13.96.24,1.65.31.67.08,1.59.13,2.73.15,1.14.03,2.71.06,4.7.11h26.34l4.44-11.02-.62.31Z"/>
    <path class="cls-5" d="M1691.28,1650.05c-.71.17-1.6.3-2.63.37-1.04.08-2.3.13-3.76.15-1.46.03-3.31.04-5.64.04h-12.32l8.61-33.45c.31-1.14.59-2.07.84-2.85.25-.78.51-1.49.76-2.12.25-.62.55-1.2.89-1.75.35-.56.76-1.19,1.22-1.91l.26-.4h-23.65l.13.35c.2.54.32,1,.37,1.36.05.37.07.78.07,1.22,0,.49-.05,1.19-.15,2.07-.1.88-.2,1.52-.3,1.91l-9.15,35.46c-.3,1.1-.58,2.07-.84,2.87-.25.78-.5,1.5-.76,2.14-.25.63-.55,1.24-.9,1.81-.34.57-.74,1.19-1.21,1.87l-.19.28-.32-.32c-.45-.45-.84-.89-1.16-1.31-.31-.41-.6-.91-.84-1.5-.25-.59-.5-1.32-.75-2.15-.25-.82-.53-1.9-.83-3.22l-8.85-42.55-.04-.21h-28.69l1.39.51c1.09.4,1.88.77,2.34,1.11.43.32.98.85,1.62,1.57l-27.34,40.63c-1.31,1.81-2.43,3.23-3.34,4.21-.91.99-1.93,1.97-3.03,2.92l-.53.46h14.72l-.12-.35c-.12-.36-.14-.53-.14-.6v-.61c0-1.01.55-2.29,1.63-3.82l5.64-8.35h23.52l1.02,5.05c.4,2.01.61,3.53.61,4.52,0,.58-.09,1.14-.25,1.67-.17.55-.49,1.25-.93,2.09l-.2.38h72.07l4.07-10.35-.51.15c-.86.25-1.66.47-2.39.64ZM1599.9,1637.5l12.42-18.59,3.78,18.59h-16.2Z"/>
    <path class="cls-5" d="M1721.36,1608.14c-2.7-.1-5.09.02-7.11.35-2.03.34-3.8.94-5.24,1.79-1.45.86-2.66,2-3.59,3.4-.93,1.4-1.66,3.12-2.17,5.12l-6.94,26.81c-.36,1.35-.59,2.29-.69,2.89-.1.59-.16,1.21-.16,1.84,0,1.72.46,3.34,1.37,4.8.91,1.46,2.14,2.57,3.65,3.3.51.26.99.46,1.41.59.42.13.96.24,1.65.31.67.08,1.59.13,2.73.15,1.14.03,2.71.06,4.7.11h26.34l4.44-11.02-.62.31c-2.29,1.15-4.87,1.73-7.66,1.73h-12.96c-1.16,0-1.88-.01-2.15-.04-.27-.02-.6-.09-.98-.18-1.06-.32-1.57-.94-1.57-1.88,0-.24.02-.51.07-.79.05-.29.17-.76.38-1.42l6.56-25.57c.2-.79.42-1.44.67-1.92.23-.46.55-.83.94-1.08.4-.26.92-.42,1.56-.49.67-.07,1.6-.11,2.75-.11h13.42c.76,0,1.41.01,1.97.04.54.03,1.05.1,1.51.22.47.12.96.29,1.46.49.51.2,1.11.46,1.83.76l.33.14,1.14-10.63h-29.03Z"/>
    <path class="cls-5" d="M1402.44,1649.49c-1,.4-1.89.69-2.67.86-.76.17-1.66.26-2.65.26h-19.64l3.3-12.67h11.33l10.01-9c-.14,0-.28.02-.42.02h-18.65l3.07-11.83h18.56c1.45,0,2.58.08,3.34.22.76.15,1.62.47,2.56.97l.33.18,1.3-10.35h-45.82l.13.35c.2.54.32,1,.37,1.36.05.37.07.79.07,1.23,0,.49-.05,1.19-.15,2.07-.1.88-.2,1.53-.3,1.91l-9.15,35.51c-.3,1.11-.58,2.07-.84,2.85-.25.79-.51,1.5-.76,2.12-.25.62-.55,1.23-.9,1.79-.34.56-.74,1.17-1.21,1.86l-.28.41h45.52l4.1-10.34-.56.23Z"/>
    <path class="cls-5" d="M1463.15,1632.52c.21-.68.46-1.61.77-2.76l2.21-8.62c.11-.32.21-.89.32-1.73.1-.83.15-1.4.15-1.71,0-1.36-.41-2.78-1.22-4.22-.8-1.43-1.84-2.6-3.1-3.5-.57-.36-1.1-.68-1.58-.93-.51-.27-1.11-.46-1.8-.56-.66-.1-1.48-.18-2.43-.23-.96-.05-2.19-.08-3.64-.08h-38.35l.13.35c.2.54.32,1,.37,1.36.05.37.07.79.07,1.23,0,.49-.05,1.19-.15,2.07-.1.88-.2,1.53-.3,1.91l-7.56,29.41-1.59,6.18c-.3,1.11-.58,2.07-.84,2.85-.25.78-.51,1.5-.76,2.12-.25.62-.55,1.21-.89,1.75-.34.54-.74,1.14-1.21,1.82l-.28.41h23.71l-.17-.37c-.24-.53-.39-.97-.44-1.3-.05-.34-.07-.76-.07-1.26s.05-1.15.15-1.95c.1-.8.23-1.48.38-2.03l3.84-14.9h4.61l4.2,21.81h22.33l-.51-.46c-.5-.45-.91-.88-1.23-1.27-.32-.39-.59-.79-.81-1.18-.22-.39-.4-.84-.55-1.35-.15-.52-.3-1.15-.45-1.85l-3.13-15.65c.18.02.35.03.51.03h.69c1.24,0,2.47-.18,3.66-.55,1.2-.37,2.18-.87,2.91-1.5.31-.26.58-.52.79-.75.22-.24.43-.57.64-.97.21-.39.42-.94.63-1.61ZM1446.18,1620.5l-1.3,5.12c-.15.68-.32,1.23-.51,1.62-.18.37-.43.64-.75.85-.32.21-.74.35-1.23.42-.52.07-1.19.11-1.98.11h-9.12l2.92-11.45h9.56c1.01,0,1.74.13,2.15.38.38.23.56.64.56,1.26,0,.53-.1,1.09-.3,1.69Z"/>
    <polygon class="cls-5" points="1501.6 1631.78 1518.09 1602.72 1476.6 1640.05 1495.31 1643.33 1478.18 1672.27 1520.85 1635.15 1501.6 1631.78"/>
  </g>
  <rect class="cls-4" x="855.4" y="102.83" width="1000" height="1000"/>
  <g>
    <g>
      <path class="cls-5" d="M1185.08,676.22c-2.63-1.18-5.76-1.77-9.39-1.77h-17.56v40.56h9.39v-11.18h8.17c3.63,0,6.76-.59,9.39-1.77,2.63-1.18,4.65-2.87,6.08-5.07,1.43-2.2,2.14-4.81,2.14-7.82s-.72-5.68-2.14-7.88c-1.43-2.2-3.46-3.89-6.08-5.07ZM1181.66,694.33c-1.43,1.24-3.59,1.85-6.49,1.85h-7.65v-14.08h7.65c2.9,0,5.06.62,6.49,1.85,1.43,1.24,2.14,2.98,2.14,5.22s-.72,3.92-2.14,5.16Z"/>
      <path class="cls-5" d="M1236.05,679.73c-1.99-1.89-4.33-3.36-7.01-4.4-2.69-1.04-5.63-1.56-8.84-1.56s-6.1.52-8.81,1.56c-2.7,1.04-5.06,2.51-7.07,4.4-2.01,1.89-3.56,4.11-4.67,6.66-1.1,2.55-1.65,5.33-1.65,8.35s.55,5.79,1.65,8.34c1.1,2.55,2.65,4.77,4.64,6.66,1.99,1.89,4.35,3.36,7.07,4.4,2.72,1.04,5.69,1.56,8.9,1.56s6.09-.52,8.78-1.56c2.69-1.04,5.02-2.5,7.01-4.38,1.99-1.87,3.54-4.09,4.67-6.66,1.12-2.57,1.68-5.36,1.68-8.37s-.56-5.84-1.68-8.37c-1.12-2.53-2.68-4.74-4.67-6.63ZM1231.94,700.01c-.64,1.58-1.54,2.96-2.7,4.11-1.16,1.16-2.5,2.05-4.03,2.67-1.53.62-3.2.93-5.01.93s-3.5-.31-5.04-.93c-1.55-.62-2.89-1.51-4.03-2.67-1.14-1.16-2.03-2.54-2.67-4.14-.64-1.6-.96-3.35-.96-5.24s.32-3.69.96-5.27c.64-1.58,1.54-2.96,2.7-4.11,1.16-1.16,2.5-2.05,4.03-2.67,1.53-.62,3.2-.93,5.01-.93s3.5.31,5.04.93c1.54.62,2.89,1.51,4.03,2.67,1.14,1.16,2.03,2.53,2.67,4.11.64,1.58.96,3.34.96,5.27s-.32,3.69-.96,5.27Z"/>
      <polygon class="cls-5" points="1291.01 703.18 1281.74 674.46 1273.05 674.46 1263.48 702.97 1254.33 674.46 1244.6 674.46 1257.87 715.02 1267.95 715.02 1277.15 687.54 1286.09 715.02 1296.17 715.02 1309.44 674.46 1300.46 674.46 1291.01 703.18"/>
      <polygon class="cls-5" points="1323.99 698.1 1342.82 698.1 1342.82 690.8 1323.99 690.8 1323.99 681.99 1345.31 681.99 1345.31 674.46 1314.66 674.46 1314.66 715.02 1346.07 715.02 1346.07 707.49 1323.99 707.49 1323.99 698.1"/>
      <path class="cls-5" d="M1380.49,701.98c2.63-1.16,4.65-2.83,6.08-5.01,1.43-2.18,2.14-4.78,2.14-7.79s-.72-5.68-2.14-7.88c-1.43-2.2-3.46-3.89-6.08-5.07-2.63-1.18-5.76-1.77-9.39-1.77h-17.56v40.56h9.39v-11.3h8.17c.15,0,.28-.02.43-.02l7.8,11.32h10.14l-9.06-13.01s.06-.02.08-.03ZM1377.07,683.96c1.43,1.24,2.14,2.98,2.14,5.22s-.72,3.93-2.14,5.19c-1.43,1.26-3.59,1.88-6.49,1.88h-7.65v-14.14h7.65c2.9,0,5.06.62,6.49,1.85Z"/>
      <path class="cls-5" d="M1406.74,685.35c1.16-1.16,2.53-2.05,4.11-2.67,1.58-.62,3.32-.93,5.22-.93,2.01,0,3.86.4,5.56,1.19,1.7.79,3.25,1.98,4.64,3.56l6.03-5.56c-1.93-2.36-4.32-4.14-7.16-5.36-2.84-1.22-6.02-1.83-9.53-1.83-3.17,0-6.08.51-8.75,1.54-2.67,1.02-4.99,2.48-6.98,4.37-1.99,1.89-3.53,4.11-4.64,6.66-1.1,2.55-1.65,5.35-1.65,8.4s.55,5.85,1.65,8.4c1.1,2.55,2.64,4.77,4.61,6.66,1.97,1.89,4.3,3.35,6.98,4.38,2.68,1.02,5.59,1.54,8.72,1.54,3.55,0,6.75-.62,9.59-1.85,2.84-1.24,5.22-3.03,7.16-5.39l-6.03-5.56c-1.39,1.62-2.94,2.83-4.64,3.62-1.7.79-3.55,1.19-5.56,1.19-1.89,0-3.63-.31-5.22-.93-1.58-.62-2.96-1.51-4.11-2.67-1.16-1.16-2.06-2.53-2.7-4.11-.64-1.58-.96-3.34-.96-5.27s.32-3.69.96-5.27c.64-1.58,1.54-2.96,2.7-4.11Z"/>
      <path class="cls-5" d="M1450.55,674.46l-18.08,40.56h9.62l3.61-8.69h18.8l3.6,8.69h9.85l-18.14-40.56h-9.27ZM1448.67,699.2l6.46-15.52,6.43,15.52h-12.89Z"/>
      <polygon class="cls-5" points="1491.58 674.46 1482.19 674.46 1482.19 715.02 1511.92 715.02 1511.92 707.37 1491.58 707.37 1491.58 674.46"/>
      <path class="cls-5" d="M1542,706.53c-1.7.79-3.55,1.19-5.56,1.19-1.89,0-3.63-.31-5.22-.93-1.58-.62-2.96-1.51-4.11-2.67-1.16-1.16-2.06-2.53-2.7-4.11-.64-1.58-.96-3.34-.96-5.27s.32-3.69.96-5.27c.64-1.58,1.54-2.96,2.7-4.11,1.16-1.16,2.53-2.05,4.11-2.67,1.58-.62,3.32-.93,5.22-.93,2.01,0,3.86.4,5.56,1.19,1.7.79,3.25,1.98,4.64,3.56l6.03-5.56c-1.93-2.36-4.32-4.14-7.16-5.36-2.84-1.22-6.02-1.83-9.53-1.83-3.17,0-6.08.51-8.75,1.54-2.67,1.02-4.99,2.48-6.98,4.37-1.99,1.89-3.53,4.11-4.64,6.66-1.1,2.55-1.65,5.35-1.65,8.4s.55,5.85,1.65,8.4c1.1,2.55,2.64,4.77,4.61,6.66,1.97,1.89,4.3,3.35,6.98,4.38,2.68,1.02,5.59,1.54,8.72,1.54,3.55,0,6.75-.62,9.59-1.85,2.84-1.24,5.22-3.03,7.16-5.39l-6.03-5.56c-1.39,1.62-2.94,2.83-4.64,3.62Z"/>
    </g>
    <path class="cls-5" d="M1343.24,556.63l-20.24,17.14v-58.15c0-1.53,1.24-2.78,2.78-2.78h17.47v43.79ZM1369.68,534.26l-20.24,17.14v-38.56h20.24v21.42ZM1375.88,529.01v-16.17h19.12l-19.12,16.17ZM1318.05,638.15s.01-.03.03-.04l17.99-31.43,1.18-2.04,13.31-23.28h-26.68c-.97,0-1.42-1.21-.67-1.84l20.04-16.96,6.2-5.25,20.24-17.14,6.2-5.25,20.24-17.14-20.24,36.6-6.2,11.21h17.49c1.92,0,3.17,2.02,2.31,3.73l-23.58,47.13,5.48-.47c15.25-1.31,28.94-8.04,39.16-18.26,11.34-11.33,18.4-26.97,18.5-44.22.23-34.96-29.31-63.57-64.28-63.57h-37.87c-13.34,0-24.15,10.81-24.15,24.15v119.93c0,8.4,11.11,11.37,15.31,4.14h0Z"/>
  </g>
  <g>
    <g>
      <path class="cls-4" d="M165.08,676.22c-2.63-1.18-5.76-1.77-9.39-1.77h-17.56v40.56h9.39v-11.18h8.17c3.63,0,6.76-.59,9.39-1.77,2.63-1.18,4.65-2.87,6.08-5.07,1.43-2.2,2.14-4.81,2.14-7.82s-.72-5.68-2.14-7.88c-1.43-2.2-3.46-3.89-6.08-5.07ZM161.66,694.33c-1.43,1.24-3.59,1.85-6.49,1.85h-7.65v-14.08h7.65c2.9,0,5.06.62,6.49,1.85,1.43,1.24,2.14,2.98,2.14,5.22s-.72,3.92-2.14,5.16Z"/>
      <path class="cls-4" d="M216.05,679.73c-1.99-1.89-4.33-3.36-7.01-4.4-2.69-1.04-5.63-1.56-8.84-1.56s-6.1.52-8.81,1.56c-2.7,1.04-5.06,2.51-7.07,4.4-2.01,1.89-3.56,4.11-4.67,6.66-1.1,2.55-1.65,5.33-1.65,8.35s.55,5.79,1.65,8.34c1.1,2.55,2.65,4.77,4.64,6.66,1.99,1.89,4.35,3.36,7.07,4.4,2.72,1.04,5.69,1.56,8.9,1.56s6.09-.52,8.78-1.56c2.69-1.04,5.02-2.5,7.01-4.38,1.99-1.87,3.54-4.09,4.67-6.66,1.12-2.57,1.68-5.36,1.68-8.37s-.56-5.84-1.68-8.37c-1.12-2.53-2.68-4.74-4.67-6.63ZM211.94,700.01c-.64,1.58-1.54,2.96-2.7,4.11-1.16,1.16-2.5,2.05-4.03,2.67-1.53.62-3.2.93-5.01.93s-3.5-.31-5.04-.93c-1.55-.62-2.89-1.51-4.03-2.67-1.14-1.16-2.03-2.54-2.67-4.14-.64-1.6-.96-3.35-.96-5.24s.32-3.69.96-5.27c.64-1.58,1.54-2.96,2.7-4.11,1.16-1.16,2.5-2.05,4.03-2.67,1.53-.62,3.2-.93,5.01-.93s3.5.31,5.04.93c1.54.62,2.89,1.51,4.03,2.67,1.14,1.16,2.03,2.53,2.67,4.11.64,1.58.96,3.34.96,5.27s-.32,3.69-.96,5.27Z"/>
      <polygon class="cls-4" points="271.01 703.18 261.74 674.46 253.05 674.46 243.48 702.97 234.33 674.46 224.6 674.46 237.87 715.02 247.95 715.02 257.15 687.54 266.09 715.02 276.17 715.02 289.44 674.46 280.46 674.46 271.01 703.18"/>
      <polygon class="cls-4" points="303.99 698.1 322.82 698.1 322.82 690.8 303.99 690.8 303.99 681.99 325.31 681.99 325.31 674.46 294.66 674.46 294.66 715.02 326.07 715.02 326.07 707.49 303.99 707.49 303.99 698.1"/>
      <path class="cls-4" d="M360.49,701.98c2.63-1.16,4.65-2.83,6.08-5.01,1.43-2.18,2.14-4.78,2.14-7.79s-.72-5.68-2.14-7.88c-1.43-2.2-3.46-3.89-6.08-5.07-2.63-1.18-5.76-1.77-9.39-1.77h-17.56v40.56h9.39v-11.3h8.17c.15,0,.28-.02.43-.02l7.8,11.32h10.14l-9.06-13.01s.06-.02.08-.03ZM357.07,683.96c1.43,1.24,2.14,2.98,2.14,5.22s-.72,3.93-2.14,5.19c-1.43,1.26-3.59,1.88-6.49,1.88h-7.65v-14.14h7.65c2.9,0,5.06.62,6.49,1.85Z"/>
      <path class="cls-4" d="M386.74,685.35c1.16-1.16,2.53-2.05,4.11-2.67,1.58-.62,3.32-.93,5.22-.93,2.01,0,3.86.4,5.56,1.19,1.7.79,3.25,1.98,4.64,3.56l6.03-5.56c-1.93-2.36-4.32-4.14-7.16-5.36-2.84-1.22-6.02-1.83-9.53-1.83-3.17,0-6.08.51-8.75,1.54-2.67,1.02-4.99,2.48-6.98,4.37-1.99,1.89-3.53,4.11-4.64,6.66-1.1,2.55-1.65,5.35-1.65,8.4s.55,5.85,1.65,8.4c1.1,2.55,2.64,4.77,4.61,6.66,1.97,1.89,4.3,3.35,6.98,4.38,2.68,1.02,5.59,1.54,8.72,1.54,3.55,0,6.75-.62,9.59-1.85,2.84-1.24,5.22-3.03,7.16-5.39l-6.03-5.56c-1.39,1.62-2.94,2.83-4.64,3.62-1.7.79-3.55,1.19-5.56,1.19-1.89,0-3.63-.31-5.22-.93-1.58-.62-2.96-1.51-4.11-2.67-1.16-1.16-2.06-2.53-2.7-4.11-.64-1.58-.96-3.34-.96-5.27s.32-3.69.96-5.27c.64-1.58,1.54-2.96,2.7-4.11Z"/>
      <path class="cls-4" d="M430.55,674.46l-18.08,40.56h9.62l3.61-8.69h18.8l3.6,8.69h9.85l-18.14-40.56h-9.27ZM428.67,699.2l6.46-15.52,6.43,15.52h-12.89Z"/>
      <polygon class="cls-4" points="471.58 674.46 462.19 674.46 462.19 715.02 491.92 715.02 491.92 707.37 471.58 707.37 471.58 674.46"/>
      <path class="cls-4" d="M522,706.53c-1.7.79-3.55,1.19-5.56,1.19-1.89,0-3.63-.31-5.22-.93-1.58-.62-2.96-1.51-4.11-2.67-1.16-1.16-2.06-2.53-2.7-4.11-.64-1.58-.96-3.34-.96-5.27s.32-3.69.96-5.27c.64-1.58,1.54-2.96,2.7-4.11,1.16-1.16,2.53-2.05,4.11-2.67,1.58-.62,3.32-.93,5.22-.93,2.01,0,3.86.4,5.56,1.19,1.7.79,3.25,1.98,4.64,3.56l6.03-5.56c-1.93-2.36-4.32-4.14-7.16-5.36-2.84-1.22-6.02-1.83-9.53-1.83-3.17,0-6.08.51-8.75,1.54-2.67,1.02-4.99,2.48-6.98,4.37-1.99,1.89-3.53,4.11-4.64,6.66-1.1,2.55-1.65,5.35-1.65,8.4s.55,5.85,1.65,8.4c1.1,2.55,2.64,4.77,4.61,6.66,1.97,1.89,4.3,3.35,6.98,4.38,2.68,1.02,5.59,1.54,8.72,1.54,3.55,0,6.75-.62,9.59-1.85,2.84-1.24,5.22-3.03,7.16-5.39l-6.03-5.56c-1.39,1.62-2.94,2.83-4.64,3.62Z"/>
    </g>
    <path class="cls-4" d="M323.24,556.63l-20.24,17.14v-58.15c0-1.53,1.24-2.78,2.78-2.78h17.47v43.79ZM349.68,534.26l-20.24,17.14v-38.56h20.24v21.42ZM355.88,529.01v-16.17h19.12l-19.12,16.17ZM298.05,638.15s.01-.03.03-.04l17.99-31.43,1.18-2.04,13.31-23.28h-26.68c-.97,0-1.42-1.21-.67-1.84l20.04-16.96,6.2-5.25,20.24-17.14,6.2-5.25,20.24-17.14-20.24,36.6-6.2,11.21h17.49c1.92,0,3.17,2.02,2.31,3.73l-23.58,47.13,5.48-.47c15.25-1.31,28.94-8.04,39.16-18.26,11.34-11.33,18.4-26.97,18.5-44.22.23-34.96-29.31-63.57-64.28-63.57h-37.87c-13.34,0-24.15,10.81-24.15,24.15v119.93c0,8.4,11.11,11.37,15.31,4.14h0Z"/>
  </g>
</svg>
